<?xml version="1.0" standalone="no"?>
<!DOCTYPE svg PUBLIC "-//W3C//DTD SVG 20010904//EN"
 "http://www.w3.org/TR/2001/REC-SVG-20010904/DTD/svg10.dtd">
<svg version="1.0" xmlns="http://www.w3.org/2000/svg"
 width="207.000000pt" height="198.000000pt" viewBox="0 0 207.000000 198.000000"
 preserveAspectRatio="xMidYMid meet">

<g transform="translate(0.000000,198.000000) scale(0.100000,-0.100000)"
fill="#000000" stroke="none">
<path d="M0 990 l0 -990 1035 0 1035 0 0 990 0 990 -1035 0 -1035 0 0 -990z
m1170 379 c0 -6 9 -8 20 -4 27 9 112 -31 176 -83 48 -38 134 -151 134 -176 0
-6 -14 13 -31 43 -39 69 -100 129 -170 169 -54 31 -104 46 -69 21 12 -9 11 -9
-5 -4 -127 45 -282 28 -394 -45 -98 -62 -161 -157 -187 -280 -13 -66 -15 -190
-2 -190 3 0 4 -10 0 -22 -3 -14 -1 -19 6 -14 8 5 10 1 5 -10 -5 -13 -3 -15 7
-9 9 5 11 4 6 -3 -13 -21 63 -144 87 -139 7 1 11 -4 10 -10 -4 -17 88 -84 105
-78 7 3 10 1 7 -4 -8 -14 41 -28 143 -40 135 -16 244 18 341 105 56 50 84 91
117 173 13 31 24 47 24 36 0 -27 -40 -110 -79 -163 -140 -189 -441 -230 -633
-84 -73 56 -141 149 -165 230 -24 80 -22 210 5 284 51 141 172 253 320 293 59
16 222 19 222 4z m10 -179 c0 -21 -2 -25 -12 -22 -5 1 -7 -1 -4 -6 3 -5 -17
-31 -45 -58 -28 -27 -49 -43 -47 -35 2 7 -3 16 -11 18 -9 4 -11 0 -6 -16 6
-19 2 -21 -30 -21 -50 0 -80 17 -64 36 6 8 17 14 23 14 6 0 5 -4 -3 -9 -7 -5
-10 -14 -7 -20 10 -16 66 -14 66 2 0 7 23 35 51 62 29 28 48 44 44 36 -5 -9
-4 -12 3 -7 7 4 12 14 12 22 0 8 7 14 15 14 8 0 15 -4 15 -10z m-167 -70 c5
-4 3 -11 -5 -15 -7 -5 -10 -4 -5 1 5 5 -7 14 -25 21 -32 13 -33 13 -3 7 17 -3
34 -9 38 -14z m-193 -245 l0 -95 40 0 c36 0 40 -2 40 -25 0 -24 -2 -25 -65
-25 l-65 0 0 120 0 120 25 0 c25 0 25 0 25 -95z m221 23 l22 -73 25 73 c22 67
26 72 53 72 l29 0 0 -120 0 -120 -24 0 c-23 0 -25 4 -28 53 l-3 52 -16 -50
c-12 -36 -21 -50 -35 -50 -13 0 -22 13 -34 50 l-15 50 -3 -52 c-3 -49 -5 -53
-28 -53 l-24 0 0 120 0 120 30 0 c28 0 31 -4 51 -72z m319 47 c0 -22 -4 -25
-40 -25 -33 0 -40 -3 -40 -19 0 -15 8 -21 33 -23 24 -2 33 -8 35 -25 3 -20 -1
-23 -33 -23 -32 0 -36 -3 -33 -22 2 -19 10 -24 41 -26 32 -3 37 -7 37 -28 0
-24 -2 -25 -62 -22 l-63 3 -3 118 -3 117 66 0 c63 0 65 -1 65 -25z m147 -107
c-3 -7 -5 -2 -5 12 0 14 2 19 5 13 2 -7 2 -19 0 -25z m-520 -164 c3 -10 -10
-11 -52 -5 -5 1 -3 6 5 11 18 12 42 9 47 -6z m90 -6 c-3 -8 -6 -5 -6 6 -1 11
2 17 5 13 3 -3 4 -12 1 -19z m43 0 c0 -6 -6 -5 -15 2 -8 7 -15 14 -15 16 0 2
7 1 15 -2 8 -4 15 -11 15 -16z m50 10 c0 6 4 12 10 12 5 0 7 -6 4 -14 -5 -14
-44 -19 -44 -6 0 15 14 19 22 8 6 -10 8 -10 8 0z m107 -4 c2 -6 -3 -11 -12
-11 -8 0 -15 7 -15 15 0 15 22 12 27 -4z"/>
<path d="M1110 1138 c-12 -22 -12 -22 6 -6 10 10 15 20 12 24 -4 3 -12 -5 -18
-18z"/>
</g>
</svg>
