<?xml version="1.0" encoding="UTF-8"?>
<!DOCTYPE svg PUBLIC "-//W3C//DTD SVG 1.1//EN" "http://www.w3.org/Graphics/SVG/1.1/DTD/svg11.dtd">
<svg xmlns="http://www.w3.org/2000/svg" version="1.1" width="871px" height="289px" style="shape-rendering:geometricPrecision; text-rendering:geometricPrecision; image-rendering:optimizeQuality; fill-rule:evenodd; clip-rule:evenodd" xmlns:xlink="http://www.w3.org/1999/xlink">
<g><path style="opacity:1" fill="#fefefe" d="M -0.5,-0.5 C 289.833,-0.5 580.167,-0.5 870.5,-0.5C 870.5,95.8333 870.5,192.167 870.5,288.5C 580.167,288.5 289.833,288.5 -0.5,288.5C -0.5,192.167 -0.5,95.8333 -0.5,-0.5 Z"/></g>
<g><path style="opacity:1" fill="#111111" d="M 145.5,34.5 C 200.476,30.2277 239.643,52.8944 263,102.5C 276.46,142.182 270.46,178.515 245,211.5C 212.931,245.74 174.098,256.907 128.5,245C 75.2576,223.046 50.7576,183.213 55,125.5C 66.0316,75.9687 96.1983,45.6354 145.5,34.5 Z"/></g>
<g><path style="opacity:1" fill="#040404" d="M 348.5,60.5 C 348.382,70.0057 348.049,79.5057 347.5,89C 347.51,93.229 348.177,97.0623 349.5,100.5C 351.5,100.5 353.5,100.5 355.5,100.5C 358.167,100.5 360.833,100.5 363.5,100.5C 365.099,100.232 366.432,100.566 367.5,101.5C 367.803,106.43 367.469,111.263 366.5,116C 355.992,116.17 345.659,116.67 335.5,117.5C 334.5,117.5 333.5,117.5 332.5,117.5C 333.262,98.1702 333.928,78.8368 334.5,59.5C 339.363,59.1805 344.03,59.5139 348.5,60.5 Z"/></g>
<g><path style="opacity:1" fill="#080808" d="M 501.5,60.5 C 501.5,64.5 501.5,68.5 501.5,72.5C 498.167,72.5 494.833,72.5 491.5,72.5C 490.5,72.5 489.5,72.5 488.5,72.5C 488.666,81.5062 488.5,90.5062 488,99.5C 486.257,102.156 486.091,104.822 487.5,107.5C 486.448,110.481 486.281,113.481 487,116.5C 484.959,117.423 482.792,117.756 480.5,117.5C 478.167,117.5 475.833,117.5 473.5,117.5C 474.714,114.12 475.381,110.12 475.5,105.5C 475.333,103.167 475.167,100.833 475,98.5C 474.667,102.5 474.333,106.5 474,110.5C 473.5,101.173 473.334,91.8393 473.5,82.5C 473.5,79.8333 473.5,77.1667 473.5,74.5C 470.941,74.1984 468.607,74.5318 466.5,75.5C 466.167,75.5 465.833,75.5 465.5,75.5C 463.99,76.7279 462.49,76.7279 461,75.5C 461.161,70.5328 461.328,65.5328 461.5,60.5C 474.833,59.1667 488.167,59.1667 501.5,60.5 Z"/></g>
<g><path style="opacity:1" fill="#5b5b5b" d="M 545.5,60.5 C 541.366,61.4849 537.032,61.8182 532.5,61.5C 532.611,60.8826 532.944,60.3826 533.5,60C 537.554,59.3064 541.554,59.4731 545.5,60.5 Z"/></g>
<g><path style="opacity:1" fill="#090909" d="M 599.5,65.5 C 598.459,76.496 597.459,87.496 596.5,98.5C 598.022,100.156 597.689,101.323 595.5,102C 596,102.5 596.5,103 597,103.5C 597.667,107.833 597.667,112.167 597,116.5C 594.619,117.435 592.119,117.768 589.5,117.5C 588.5,117.5 587.5,117.5 586.5,117.5C 585.167,117.5 583.833,117.5 582.5,117.5C 582.339,102.817 582.672,88.1507 583.5,73.5C 583.517,71.4352 583.85,69.4352 584.5,67.5C 584.5,64.8333 584.5,62.1667 584.5,59.5C 589.5,59.5 594.5,59.5 599.5,59.5C 599.5,61.5 599.5,63.5 599.5,65.5 Z"/></g>
<g><path style="opacity:1" fill="#070707" d="M 730.5,60.5 C 730.5,64.5 730.5,68.5 730.5,72.5C 726.167,72.5 721.833,72.5 717.5,72.5C 717.5,77.8333 717.5,83.1667 717.5,88.5C 716.971,98.1584 716.638,107.825 716.5,117.5C 714.167,117.5 711.833,117.5 709.5,117.5C 706.941,117.802 704.607,117.468 702.5,116.5C 702.5,108.5 702.5,100.5 702.5,92.5C 703.49,86.69 703.823,80.69 703.5,74.5C 700.941,74.1984 698.607,74.5318 696.5,75.5C 695.833,75.5 695.167,75.5 694.5,75.5C 692.414,77.0234 690.748,76.69 689.5,74.5C 690.2,70.2022 690.533,65.8689 690.5,61.5C 690.611,60.8826 690.944,60.3826 691.5,60C 704.673,59.1731 717.673,59.3398 730.5,60.5 Z"/></g>
<g><path style="opacity:1" fill="#050505" d="M 774.5,66.5 C 774.946,69.0101 774.28,71.0101 772.5,72.5C 764.833,73.1667 757.167,73.8333 749.5,74.5C 749.5,76.8333 749.5,79.1667 749.5,81.5C 755.5,81.5 761.5,81.5 767.5,81.5C 768.692,82.5659 768.359,83.3992 766.5,84C 768.107,85.049 768.773,86.549 768.5,88.5C 768.714,90.1439 768.38,91.6439 767.5,93C 761.167,93.9165 754.834,94.7498 748.5,95.5C 748.5,97.8333 748.5,100.167 748.5,102.5C 756.167,102.5 763.833,102.5 771.5,102.5C 772.468,104.607 772.802,106.941 772.5,109.5C 772.975,112.082 772.308,114.082 770.5,115.5C 759.338,115.99 748.338,116.657 737.5,117.5C 736.5,117.5 735.5,117.5 734.5,117.5C 734.5,107.833 734.5,98.1667 734.5,88.5C 735.47,81.3408 736.136,74.0074 736.5,66.5C 736.261,64.5328 736.594,62.6995 737.5,61C 749.826,60.267 762.16,59.767 774.5,59.5C 774.5,61.8333 774.5,64.1667 774.5,66.5 Z"/></g>
<g><path style="opacity:1" fill="#080808" d="M 407.5,66.5 C 411.684,83.2673 414.684,100.267 416.5,117.5C 413.833,117.5 411.167,117.5 408.5,117.5C 406.143,117.663 403.81,117.497 401.5,117C 400.748,116.329 400.414,115.496 400.5,114.5C 400.5,111.833 400.5,109.167 400.5,106.5C 395.951,106.624 391.618,107.291 387.5,108.5C 386.833,111.167 386.167,113.833 385.5,116.5C 380.5,116.5 375.5,116.5 370.5,116.5C 370.508,113.455 370.841,110.455 371.5,107.5C 376.438,91.934 382.272,76.6006 389,61.5C 392.967,59.6145 397.134,59.1145 401.5,60C 404.386,61.3845 406.386,63.5512 407.5,66.5 Z"/></g>
<g><path style="opacity:1" fill="#060606" d="M 457.5,67.5 C 457.5,71.5 457.5,75.5 457.5,79.5C 453.167,79.5 448.833,79.5 444.5,79.5C 444.664,76.8127 444.497,74.146 444,71.5C 441.909,70.5004 440.243,71.1671 439,73.5C 438.79,78.8236 441.29,82.4903 446.5,84.5C 449.207,86.8432 451.874,89.1765 454.5,91.5C 454.833,92.5 455.5,93.1667 456.5,93.5C 459.472,105.059 455.472,112.893 444.5,117C 438.98,117.929 433.647,117.429 428.5,115.5C 426.95,114.559 425.284,113.893 423.5,113.5C 420.003,111.664 419.67,109.33 422.5,106.5C 422.632,103.203 424.298,101.537 427.5,101.5C 430.218,104.193 433.551,105.859 437.5,106.5C 440.794,105.864 442.127,103.864 441.5,100.5C 439.781,97.7805 437.447,95.7805 434.5,94.5C 431.55,92.8847 428.884,90.8847 426.5,88.5C 425.305,86.2487 424.305,83.9154 423.5,81.5C 424.151,65.4968 432.484,58.3301 448.5,60C 452.804,61.1239 455.804,63.6239 457.5,67.5 Z"/></g>
<g><path style="opacity:1" fill="#050505" d="M 622.5,66.5 C 623.834,71.6684 625.668,76.6684 628,81.5C 628.455,78.1464 628.955,74.8131 629.5,71.5C 629.207,67.5633 629.54,63.73 630.5,60C 634.689,59.1881 638.689,59.3547 642.5,60.5C 642.5,64.5 642.5,68.5 642.5,72.5C 641.504,86.9905 641.171,101.657 641.5,116.5C 636.833,116.5 632.167,116.5 627.5,116.5C 625.971,113.246 624.638,109.913 623.5,106.5C 621.481,101.429 619.481,96.4291 617.5,91.5C 617.291,90.0783 616.791,88.745 616,87.5C 615.667,97.1667 615.333,106.833 615,116.5C 612.959,117.423 610.792,117.756 608.5,117.5C 607.5,117.5 606.5,117.5 605.5,117.5C 603.833,117.5 602.167,117.5 600.5,117.5C 601.234,100.15 602.234,82.8169 603.5,65.5C 602.728,60.106 605.062,58.106 610.5,59.5C 616.403,58.7789 620.403,61.1122 622.5,66.5 Z"/></g>
<g><path style="opacity:1" fill="#020202" d="M 662.5,67.5 C 660.996,78.3948 660.33,89.3948 660.5,100.5C 661.866,102.271 663.366,103.938 665,105.5C 666.25,103.807 667.75,102.473 669.5,101.5C 670.6,99.7226 671.434,97.7226 672,95.5C 672.5,88.5079 672.666,81.5079 672.5,74.5C 673.441,69.9296 673.774,65.263 673.5,60.5C 677.833,60.5 682.167,60.5 686.5,60.5C 686.881,73.879 686.381,87.2124 685,100.5C 683.914,106.359 681.08,111.025 676.5,114.5C 670.133,117.122 663.466,118.122 656.5,117.5C 654.205,116.525 652.205,115.192 650.5,113.5C 649.093,111.692 647.926,109.692 647,107.5C 646.407,96.1543 646.574,84.8209 647.5,73.5C 648.468,71.3926 648.802,69.0593 648.5,66.5C 648.5,66.1667 648.5,65.8333 648.5,65.5C 649.321,68.6414 649.821,71.9748 650,75.5C 650.337,72.1392 650.837,68.8058 651.5,65.5C 650.775,64.1331 650.108,62.7997 649.5,61.5C 653.634,60.5151 657.968,60.1818 662.5,60.5C 662.5,62.8333 662.5,65.1667 662.5,67.5 Z"/></g>
<g><path style="opacity:1" fill="#a5a5a5" d="M 545.5,60.5 C 546.338,60.8417 546.672,61.5084 546.5,62.5C 541.833,62.5 537.167,62.5 532.5,62.5C 532.813,66.0419 532.479,69.3752 531.5,72.5C 531.185,68.6286 531.518,64.9619 532.5,61.5C 537.032,61.8182 541.366,61.4849 545.5,60.5 Z"/></g>
<g><path style="opacity:1" fill="#060606" d="M 578.5,66.5 C 578.5,67.5 578.5,68.5 578.5,69.5C 578.5,85.5 578.5,101.5 578.5,117.5C 576.167,117.5 573.833,117.5 571.5,117.5C 569.5,117.5 567.5,117.5 565.5,117.5C 564.883,117.389 564.383,117.056 564,116.5C 563.833,115 563.667,113.5 563.5,112C 564.333,107.512 564.5,103.012 564,98.5C 562.409,104.031 559.576,108.698 555.5,112.5C 554.5,112.5 553.5,112.5 552.5,112.5C 551.357,112.092 550.357,111.425 549.5,110.5C 548.791,107.616 547.791,104.949 546.5,102.5C 545.527,104.749 545.027,109.082 545,115.5C 542.564,116.355 540.064,117.021 537.5,117.5C 535.143,117.663 532.81,117.497 530.5,117C 529.892,115.769 529.559,114.436 529.5,113C 530.615,99.5236 531.282,86.0236 531.5,72.5C 532.479,69.3752 532.813,66.0419 532.5,62.5C 537.167,62.5 541.833,62.5 546.5,62.5C 548.25,63.6594 549.25,65.326 549.5,67.5C 550.331,70.659 551.331,73.659 552.5,76.5C 553.022,79.5682 553.855,82.5682 555,85.5C 556.076,82.7627 557.243,80.096 558.5,77.5C 559.11,76.609 559.443,75.609 559.5,74.5C 561.354,70.9469 563.021,67.2803 564.5,63.5C 567.447,62.6786 570.447,62.1786 573.5,62C 570.833,61.6667 568.167,61.3333 565.5,61C 571.953,57.8943 576.286,59.7276 578.5,66.5 Z"/></g>
<g><path style="opacity:1" fill="#c4c4c4" d="M 585.5,60.5 C 587.857,60.3367 590.19,60.5034 592.5,61C 591.747,62.487 590.914,62.6537 590,61.5C 589.581,62.6721 588.915,63.6721 588,64.5C 587.113,67.5666 586.446,70.5666 586,73.5C 585.501,69.1794 585.334,64.8461 585.5,60.5 Z"/></g>
<g><path style="opacity:1" fill="#7b7b7b" d="M 684.5,61.5 C 685.788,63.0348 685.788,64.7015 684.5,66.5C 683.334,64.8327 683.334,63.166 684.5,61.5 Z"/></g>
<g><path style="opacity:1" fill="#7b7b7b" d="M 348.5,60.5 C 349.461,62.2646 349.795,64.2646 349.5,66.5C 351.833,66.5 354.167,66.5 356.5,66.5C 356.5,68.8333 356.5,71.1667 356.5,73.5C 354.208,73.2436 352.041,73.5769 350,74.5C 349.815,83.3121 349.649,91.9788 349.5,100.5C 348.177,97.0623 347.51,93.229 347.5,89C 348.049,79.5057 348.382,70.0057 348.5,60.5 Z"/></g>
<g><path style="opacity:1" fill="#7f7f7f" d="M 501.5,60.5 C 502.461,62.2646 502.795,64.2646 502.5,66.5C 504.833,66.5 507.167,66.5 509.5,66.5C 509.5,68.8333 509.5,71.1667 509.5,73.5C 503.31,73.8229 497.31,73.4896 491.5,72.5C 494.833,72.5 498.167,72.5 501.5,72.5C 501.5,68.5 501.5,64.5 501.5,60.5 Z"/></g>
<g><path style="opacity:1" fill="#7f7f7f" d="M 774.5,66.5 C 777.167,66.5 779.833,66.5 782.5,66.5C 782.5,68.8333 782.5,71.1667 782.5,73.5C 782.784,75.4147 782.451,77.0813 781.5,78.5C 781.5,76.8333 781.5,75.1667 781.5,73.5C 778.287,73.81 775.287,73.4767 772.5,72.5C 774.28,71.0101 774.946,69.0101 774.5,66.5 Z"/></g>
<g><path style="opacity:1" fill="#858585" d="M 578.5,66.5 C 580.435,67.1495 582.435,67.4828 584.5,67.5C 583.85,69.4352 583.517,71.4352 583.5,73.5C 581.583,74.1164 580.416,75.4497 580,77.5C 579.817,74.6353 579.317,71.9686 578.5,69.5C 578.5,68.5 578.5,67.5 578.5,66.5 Z"/></g>
<g><path style="opacity:1" fill="#757575" d="M 622.5,66.5 C 625.7,67.0435 628.033,68.7102 629.5,71.5C 628.955,74.8131 628.455,78.1464 628,81.5C 625.668,76.6684 623.834,71.6684 622.5,66.5 Z"/></g>
<g><path style="opacity:1" fill="#7c7c7c" d="M 642.5,60.5 C 643.461,62.2646 643.795,64.2646 643.5,66.5C 645.167,66.5 646.833,66.5 648.5,66.5C 648.802,69.0593 648.468,71.3926 647.5,73.5C 646.069,73.8807 645.236,74.8807 645,76.5C 644.667,83.1667 644.333,89.8333 644,96.5C 642.534,88.672 642.034,80.672 642.5,72.5C 642.5,68.5 642.5,64.5 642.5,60.5 Z"/></g>
<g><path style="opacity:1" fill="#777777" d="M 662.5,67.5 C 665.167,67.5 667.833,67.5 670.5,67.5C 670.5,69.8333 670.5,72.1667 670.5,74.5C 670.768,76.099 670.434,77.4324 669.5,78.5C 669.5,77.1667 669.5,75.8333 669.5,74.5C 667.833,74.5 666.167,74.5 664.5,74.5C 664.338,76.5273 664.505,78.5273 665,80.5C 665.333,79.5 665.667,78.5 666,77.5C 666.854,81.6251 666.52,85.6251 665,89.5C 664.667,88.1667 664.333,86.8333 664,85.5C 663.338,90.8685 662.172,95.8685 660.5,100.5C 660.33,89.3948 660.996,78.3948 662.5,67.5 Z"/></g>
<g><path style="opacity:1" fill="#757575" d="M 686.5,60.5 C 687.165,62.6979 687.832,65.0312 688.5,67.5C 689.169,65.3691 689.835,63.3691 690.5,61.5C 690.533,65.8689 690.2,70.2022 689.5,74.5C 688.521,87.7135 687.354,101.047 686,114.5C 682.62,118.501 679.454,118.501 676.5,114.5C 681.08,111.025 683.914,106.359 685,100.5C 686.381,87.2124 686.881,73.879 686.5,60.5 Z"/></g>
<g><path style="opacity:1" fill="#646464" d="M 649.5,61.5 C 650.108,62.7997 650.775,64.1331 651.5,65.5C 650.837,68.8058 650.337,72.1392 650,75.5C 649.821,71.9748 649.321,68.6414 648.5,65.5C 648.232,63.901 648.566,62.5676 649.5,61.5 Z"/></g>
<g><path style="opacity:1" fill="#868686" d="M 549.5,67.5 C 553.292,67.7833 555.792,69.7833 557,73.5C 557.671,74.2524 558.504,74.5858 559.5,74.5C 559.443,75.609 559.11,76.609 558.5,77.5C 556.621,76.6586 554.621,76.3253 552.5,76.5C 551.331,73.659 550.331,70.659 549.5,67.5 Z"/></g>
<g><path style="opacity:1" fill="#5d5d5d" d="M 356.5,73.5 C 355.959,82.4906 355.626,91.4906 355.5,100.5C 353.5,100.5 351.5,100.5 349.5,100.5C 349.649,91.9788 349.815,83.3121 350,74.5C 352.041,73.5769 354.208,73.2436 356.5,73.5 Z"/></g>
<g><path style="opacity:1" fill="#b2b2b2" d="M 356.5,73.5 C 359.119,73.2317 361.619,73.565 364,74.5C 363.624,83.1212 363.458,91.7879 363.5,100.5C 360.833,100.5 358.167,100.5 355.5,100.5C 355.626,91.4906 355.959,82.4906 356.5,73.5 Z"/></g>
<g><path style="opacity:1" fill="#636363" d="M 407.5,66.5 C 411.426,67.4278 414.093,69.7611 415.5,73.5C 418.169,84.5409 420.502,95.5409 422.5,106.5C 419.67,109.33 420.003,111.664 423.5,113.5C 423.552,117.198 423.886,120.865 424.5,124.5C 421.833,124.5 419.167,124.5 416.5,124.5C 414.143,124.663 411.81,124.497 409.5,124C 408.748,123.329 408.414,122.496 408.5,121.5C 408.5,120.167 408.5,118.833 408.5,117.5C 411.167,117.5 413.833,117.5 416.5,117.5C 414.684,100.267 411.684,83.2673 407.5,66.5 Z"/></g>
<g><path style="opacity:1" fill="#5e5e5e" d="M 491.5,72.5 C 497.31,73.4896 503.31,73.8229 509.5,73.5C 509.739,75.4672 509.406,77.3005 508.5,79C 504.514,79.4988 500.514,79.6655 496.5,79.5C 496.527,94.55 495.86,109.55 494.5,124.5C 492.5,124.5 490.5,124.5 488.5,124.5C 488.833,118.07 488.5,112.403 487.5,107.5C 486.091,104.822 486.257,102.156 488,99.5C 488.5,90.5062 488.666,81.5062 488.5,72.5C 489.5,72.5 490.5,72.5 491.5,72.5 Z"/></g>
<g><path style="opacity:1" fill="#b2b2b2" d="M 509.5,73.5 C 512.119,73.2317 514.619,73.565 517,74.5C 517.667,78.1667 517.667,81.8333 517,85.5C 512.599,86.4667 508.099,86.8 503.5,86.5C 503.428,101.507 503.095,116.507 502.5,131.5C 497.833,131.5 493.167,131.5 488.5,131.5C 488.5,129.167 488.5,126.833 488.5,124.5C 490.5,124.5 492.5,124.5 494.5,124.5C 495.86,109.55 496.527,94.55 496.5,79.5C 500.514,79.6655 504.514,79.4988 508.5,79C 509.406,77.3005 509.739,75.4672 509.5,73.5 Z"/></g>
<g><path style="opacity:1" fill="#5c5c5c" d="M 772.5,72.5 C 775.287,73.4767 778.287,73.81 781.5,73.5C 781.5,75.1667 781.5,76.8333 781.5,78.5C 776.887,79.7895 772.22,80.7895 767.5,81.5C 761.5,81.5 755.5,81.5 749.5,81.5C 749.5,79.1667 749.5,76.8333 749.5,74.5C 757.167,73.8333 764.833,73.1667 772.5,72.5 Z"/></g>
<g><path style="opacity:1" fill="#b1b1b1" d="M 782.5,73.5 C 785.167,73.5 787.833,73.5 790.5,73.5C 790.666,77.5138 790.499,81.5138 790,85.5C 785.308,86.9127 780.474,87.746 775.5,88C 776.815,89.3946 776.481,90.3946 774.5,91C 776.107,92.049 776.773,93.549 776.5,95.5C 775.5,95.5 774.5,95.5 773.5,95.5C 773.5,93.1667 773.5,90.8333 773.5,88.5C 771.833,88.5 770.167,88.5 768.5,88.5C 768.773,86.549 768.107,85.049 766.5,84C 768.359,83.3992 768.692,82.5659 767.5,81.5C 772.22,80.7895 776.887,79.7895 781.5,78.5C 782.451,77.0813 782.784,75.4147 782.5,73.5 Z"/></g>
<g><path style="opacity:1" fill="#b3b3b3" d="M 415.5,73.5 C 419.867,74.5333 422.533,77.2 423.5,81.5C 424.305,83.9154 425.305,86.2487 426.5,88.5C 425.876,88.9169 425.543,89.5836 425.5,90.5C 426.426,94.1303 427.093,97.797 427.5,101.5C 424.298,101.537 422.632,103.203 422.5,106.5C 420.502,95.5409 418.169,84.5409 415.5,73.5 Z"/></g>
<g><path style="opacity:1" fill="#606060" d="M 461.5,60.5 C 461.328,65.5328 461.161,70.5328 461,75.5C 462.49,76.7279 463.99,76.7279 465.5,75.5C 465.5,79.1667 465.5,82.8333 465.5,86.5C 461.167,86.5 456.833,86.5 452.5,86.5C 452.5,84.5 452.5,82.5 452.5,80.5C 450.5,80.5 448.5,80.5 446.5,80.5C 446.5,81.8333 446.5,83.1667 446.5,84.5C 441.29,82.4903 438.79,78.8236 439,73.5C 440.243,71.1671 441.909,70.5004 444,71.5C 444.497,74.146 444.664,76.8127 444.5,79.5C 448.833,79.5 453.167,79.5 457.5,79.5C 457.5,75.5 457.5,71.5 457.5,67.5C 458.15,67.8039 458.817,68.1373 459.5,68.5C 460.168,65.6944 460.834,63.0277 461.5,60.5 Z"/></g>
<g><path style="opacity:1" fill="#585858" d="M 642.5,72.5 C 642.034,80.672 642.534,88.672 644,96.5C 644.333,89.8333 644.667,83.1667 645,76.5C 645.236,74.8807 646.069,73.8807 647.5,73.5C 646.574,84.8209 646.407,96.1543 647,107.5C 647.926,109.692 649.093,111.692 650.5,113.5C 649.833,116.833 649.167,120.167 648.5,123.5C 645.5,123.5 642.5,123.5 639.5,123.5C 639.167,121.5 638.833,119.5 638.5,117.5C 636.5,117.5 634.5,117.5 632.5,117.5C 631.833,117.5 631.167,117.5 630.5,117.5C 629.209,117.737 628.209,117.404 627.5,116.5C 632.167,116.5 636.833,116.5 641.5,116.5C 641.171,101.657 641.504,86.9905 642.5,72.5 Z"/></g>
<g><path style="opacity:1" fill="#5a5a5a" d="M 669.5,78.5 C 668.572,86.3319 668.572,93.9986 669.5,101.5C 667.75,102.473 666.25,103.807 665,105.5C 663.366,103.938 661.866,102.271 660.5,100.5C 662.172,95.8685 663.338,90.8685 664,85.5C 664.333,86.8333 664.667,88.1667 665,89.5C 666.52,85.6251 666.854,81.6251 666,77.5C 665.667,78.5 665.333,79.5 665,80.5C 664.505,78.5273 664.338,76.5273 664.5,74.5C 666.167,74.5 667.833,74.5 669.5,74.5C 669.5,75.8333 669.5,77.1667 669.5,78.5 Z"/></g>
<g><path style="opacity:1" fill="#a5a5a5" d="M 670.5,74.5 C 671.167,74.5 671.833,74.5 672.5,74.5C 672.666,81.5079 672.5,88.5079 672,95.5C 671.434,97.7226 670.6,99.7226 669.5,101.5C 668.572,93.9986 668.572,86.3319 669.5,78.5C 670.434,77.4324 670.768,76.099 670.5,74.5 Z"/></g>
<g><path style="opacity:1" fill="#5d5d5d" d="M 730.5,60.5 C 731.461,62.2646 731.795,64.2646 731.5,66.5C 733.167,66.5 734.833,66.5 736.5,66.5C 736.136,74.0074 735.47,81.3408 734.5,88.5C 734.5,87.8333 734.5,87.1667 734.5,86.5C 734.5,84.1667 734.5,81.8333 734.5,79.5C 731.5,79.5 728.5,79.5 725.5,79.5C 725.378,94.452 724.711,109.119 723.5,123.5C 722.5,123.5 721.5,123.5 720.5,123.5C 721.208,109.044 720.708,109.044 719,123.5C 718.831,111.659 718.331,99.9928 717.5,88.5C 717.5,83.1667 717.5,77.8333 717.5,72.5C 721.833,72.5 726.167,72.5 730.5,72.5C 730.5,68.5 730.5,64.5 730.5,60.5 Z"/></g>
<g><path style="opacity:1" fill="#b1b1b1" d="M 694.5,75.5 C 695.167,75.5 695.833,75.5 696.5,75.5C 697.468,77.6074 697.802,79.9407 697.5,82.5C 699.167,82.5 700.833,82.5 702.5,82.5C 702.5,85.8333 702.5,89.1667 702.5,92.5C 702.5,100.5 702.5,108.5 702.5,116.5C 701.71,115.391 701.21,114.058 701,112.5C 697.336,128.098 687.503,134.265 671.5,131C 667.677,129.676 665.011,127.176 663.5,123.5C 682.621,126.879 692.787,118.879 694,99.5C 694.5,91.5069 694.666,83.5069 694.5,75.5 Z"/></g>
<g><path style="opacity:1" fill="#5c5c5c" d="M 696.5,75.5 C 698.607,74.5318 700.941,74.1984 703.5,74.5C 703.823,80.69 703.49,86.69 702.5,92.5C 702.5,89.1667 702.5,85.8333 702.5,82.5C 700.833,82.5 699.167,82.5 697.5,82.5C 697.802,79.9407 697.468,77.6074 696.5,75.5 Z"/></g>
<g><path style="opacity:1" fill="#585858" d="M 552.5,76.5 C 554.621,76.3253 556.621,76.6586 558.5,77.5C 557.243,80.096 556.076,82.7627 555,85.5C 553.855,82.5682 553.022,79.5682 552.5,76.5 Z"/></g>
<g><path style="opacity:1" fill="#535353" d="M 578.5,69.5 C 579.317,71.9686 579.817,74.6353 580,77.5C 580.416,75.4497 581.583,74.1164 583.5,73.5C 582.672,88.1507 582.339,102.817 582.5,117.5C 583.833,117.5 585.167,117.5 586.5,117.5C 586.5,119.833 586.5,122.167 586.5,124.5C 584.167,124.5 581.833,124.5 579.5,124.5C 579.802,121.941 579.468,119.607 578.5,117.5C 578.5,101.5 578.5,85.5 578.5,69.5 Z"/></g>
<g><path style="opacity:1" fill="#5d5d5d" d="M 689.5,74.5 C 690.748,76.69 692.414,77.0234 694.5,75.5C 694.666,83.5069 694.5,91.5069 694,99.5C 692.787,118.879 682.621,126.879 663.5,123.5C 660.802,123.155 658.802,121.822 657.5,119.5C 657.167,118.833 656.833,118.167 656.5,117.5C 663.466,118.122 670.133,117.122 676.5,114.5C 679.454,118.501 682.62,118.501 686,114.5C 687.354,101.047 688.521,87.7135 689.5,74.5 Z"/></g>
<g><path style="opacity:1" fill="#666666" d="M 466.5,75.5 C 468.607,74.5318 470.941,74.1984 473.5,74.5C 473.5,77.1667 473.5,79.8333 473.5,82.5C 471.833,82.5 470.167,82.5 468.5,82.5C 469.01,79.6122 468.344,77.2789 466.5,75.5 Z"/></g>
<g><path style="opacity:1" fill="#b1b1b1" d="M 734.5,86.5 C 733.177,97.986 732.177,109.653 731.5,121.5C 731.551,124.223 731.884,126.89 732.5,129.5C 732.291,130.086 731.957,130.586 731.5,131C 727.167,131.667 722.833,131.667 718.5,131C 717.577,128.959 717.244,126.792 717.5,124.5C 719.735,124.795 721.735,124.461 723.5,123.5C 724.711,109.119 725.378,94.452 725.5,79.5C 728.5,79.5 731.5,79.5 734.5,79.5C 734.5,81.8333 734.5,84.1667 734.5,86.5 Z"/></g>
<g><path style="opacity:1" fill="#a0a0a0" d="M 155.5,81.5 C 166.721,80.0303 177.721,81.5303 188.5,86C 190.584,86.6972 192.251,87.8639 193.5,89.5C 187.723,86.7394 181.723,84.906 175.5,84C 176.167,84.3333 176.833,84.6667 177.5,85C 177.272,85.3988 176.938,85.5654 176.5,85.5C 169.201,84.6502 161.868,84.3169 154.5,84.5C 158.312,83.6762 162.312,83.1762 166.5,83C 162.914,81.8924 159.247,81.3924 155.5,81.5 Z"/></g>
<g><path style="opacity:1" fill="#767676" d="M 395.5,80.5 C 396.268,81.2625 396.768,82.2625 397,83.5C 397.498,86.8168 397.665,90.1501 397.5,93.5C 395.833,93.5 394.167,93.5 392.5,93.5C 393.301,89.1028 394.301,84.7694 395.5,80.5 Z"/></g>
<g><path style="opacity:1" fill="#121212" d="M 154.5,84.5 C 161.868,84.3169 169.201,84.6502 176.5,85.5C 181.967,87.2268 187.301,89.5601 192.5,92.5C 192.787,91.7997 193.12,91.1331 193.5,90.5C 200.084,94.7465 206.084,99.7465 211.5,105.5C 220.912,119.379 224.412,134.712 222,151.5C 222.223,141.909 220.89,132.575 218,123.5C 218.766,129.61 219.6,135.776 220.5,142C 220.202,144.848 219.869,147.681 219.5,150.5C 214.487,178.846 197.82,195.513 169.5,200.5C 133.988,200.933 112.321,183.933 104.5,149.5C 104.114,141.383 104.781,133.383 106.5,125.5C 113.888,101.781 129.888,88.114 154.5,84.5 Z"/></g>
<g><path style="opacity:1" fill="#474747" d="M 193.5,89.5 C 193.5,89.8333 193.5,90.1667 193.5,90.5C 193.12,91.1331 192.787,91.7997 192.5,92.5C 187.301,89.5601 181.967,87.2268 176.5,85.5C 176.938,85.5654 177.272,85.3988 177.5,85C 176.833,84.6667 176.167,84.3333 175.5,84C 181.723,84.906 187.723,86.7394 193.5,89.5 Z"/></g>
<g><path style="opacity:1" fill="#f9f9f9" d="M 463.5,100.5 C 461.5,97.8333 459.167,95.5 456.5,93.5C 455.5,93.1667 454.833,92.5 454.5,91.5C 454.5,90.1667 454.5,88.8333 454.5,87.5C 456.5,87.5 458.5,87.5 460.5,87.5C 460.5,89.8333 460.5,92.1667 460.5,94.5C 464.5,94.5 468.5,94.5 472.5,94.5C 472.666,99.5111 472.499,104.511 472,109.5C 470.319,105.321 467.485,102.321 463.5,100.5 Z"/></g>
<g><path style="opacity:1" fill="#f5f5f5" d="M 426.5,88.5 C 428.884,90.8847 431.55,92.8847 434.5,94.5C 434.414,95.4959 434.748,96.3292 435.5,97C 437.405,98.4213 439.405,99.588 441.5,100.5C 442.127,103.864 440.794,105.864 437.5,106.5C 433.551,105.859 430.218,104.193 427.5,101.5C 427.093,97.797 426.426,94.1303 425.5,90.5C 425.543,89.5836 425.876,88.9169 426.5,88.5 Z"/></g>
<g><path style="opacity:1" fill="#9e9e9e" d="M 193.5,90.5 C 193.5,90.1667 193.5,89.8333 193.5,89.5C 201.064,93.0631 207.064,98.3965 211.5,105.5C 206.084,99.7465 200.084,94.7465 193.5,90.5 Z"/></g>
<g><path style="opacity:1" fill="#616161" d="M 768.5,88.5 C 770.167,88.5 771.833,88.5 773.5,88.5C 773.5,90.8333 773.5,93.1667 773.5,95.5C 774.5,95.5 775.5,95.5 776.5,95.5C 776.714,97.1439 776.38,98.6439 775.5,100C 773.167,100.333 770.833,100.667 768.5,101C 769.737,101.232 770.737,101.732 771.5,102.5C 763.833,102.5 756.167,102.5 748.5,102.5C 748.5,100.167 748.5,97.8333 748.5,95.5C 754.834,94.7498 761.167,93.9165 767.5,93C 768.38,91.6439 768.714,90.1439 768.5,88.5 Z"/></g>
<g><path style="opacity:1" fill="#b7b7b7" d="M 776.5,95.5 C 779.167,95.5 781.833,95.5 784.5,95.5C 784.665,99.1817 784.499,102.848 784,106.5C 780.589,107.293 777.089,107.793 773.5,108C 775.708,108.191 777.708,108.691 779.5,109.5C 777.167,109.5 774.833,109.5 772.5,109.5C 772.802,106.941 772.468,104.607 771.5,102.5C 770.737,101.732 769.737,101.232 768.5,101C 770.833,100.667 773.167,100.333 775.5,100C 776.38,98.6439 776.714,97.1439 776.5,95.5 Z"/></g>
<g><path style="opacity:1" fill="#656565" d="M 456.5,93.5 C 459.167,95.5 461.5,97.8333 463.5,100.5C 467.259,115.266 461.425,123.266 446,124.5C 442.636,124.578 439.47,123.911 436.5,122.5C 434.716,122.107 433.05,121.441 431.5,120.5C 430.791,119.596 429.791,119.263 428.5,119.5C 428.5,118.167 428.5,116.833 428.5,115.5C 433.647,117.429 438.98,117.929 444.5,117C 455.472,112.893 459.472,105.059 456.5,93.5 Z"/></g>
<g><path style="opacity:1" fill="#848484" d="M 434.5,94.5 C 437.447,95.7805 439.781,97.7805 441.5,100.5C 439.405,99.588 437.405,98.4213 435.5,97C 434.748,96.3292 434.414,95.4959 434.5,94.5 Z"/></g>
<g><path style="opacity:1" fill="#5b5b5b" d="M 617.5,91.5 C 619.481,96.4291 621.481,101.429 623.5,106.5C 622.51,112.31 622.177,118.31 622.5,124.5C 620.5,124.5 618.5,124.5 616.5,124.5C 616.056,116.847 616.723,109.347 618.5,102C 618.06,98.7571 617.727,95.2571 617.5,91.5 Z"/></g>
<g><path style="opacity:1" fill="#b3b3b3" d="M 465.5,75.5 C 465.833,75.5 466.167,75.5 466.5,75.5C 468.344,77.2789 469.01,79.6122 468.5,82.5C 470.167,82.5 471.833,82.5 473.5,82.5C 473.334,91.8393 473.5,101.173 474,110.5C 474.333,106.5 474.667,102.5 475,98.5C 475.167,100.833 475.333,103.167 475.5,105.5C 475.381,110.12 474.714,114.12 473.5,117.5C 471.322,124.51 466.656,129.01 459.5,131C 451.119,132.652 443.453,130.985 436.5,126C 435.316,124.855 435.316,123.688 436.5,122.5C 439.47,123.911 442.636,124.578 446,124.5C 461.425,123.266 467.259,115.266 463.5,100.5C 467.485,102.321 470.319,105.321 472,109.5C 472.499,104.511 472.666,99.5111 472.5,94.5C 468.5,94.5 464.5,94.5 460.5,94.5C 460.5,92.1667 460.5,89.8333 460.5,87.5C 458.5,87.5 456.5,87.5 454.5,87.5C 454.5,88.8333 454.5,90.1667 454.5,91.5C 451.874,89.1765 449.207,86.8432 446.5,84.5C 446.5,83.1667 446.5,81.8333 446.5,80.5C 448.5,80.5 450.5,80.5 452.5,80.5C 452.5,82.5 452.5,84.5 452.5,86.5C 456.833,86.5 461.167,86.5 465.5,86.5C 465.5,82.8333 465.5,79.1667 465.5,75.5 Z"/></g>
<g><path style="opacity:1" fill="#767676" d="M 617.5,91.5 C 617.727,95.2571 618.06,98.7571 618.5,102C 616.723,109.347 616.056,116.847 616.5,124.5C 615.5,124.5 614.5,124.5 613.5,124.5C 611.833,124.5 610.167,124.5 608.5,124.5C 608.5,122.167 608.5,119.833 608.5,117.5C 610.792,117.756 612.959,117.423 615,116.5C 615.333,106.833 615.667,97.1667 616,87.5C 616.791,88.745 617.291,90.0783 617.5,91.5 Z"/></g>
<g><path style="opacity:1" fill="#808080" d="M 703.5,98.5 C 704.8,100.223 705.467,102.39 705.5,105C 705.609,107.7 705.109,110.2 704,112.5C 703.501,107.845 703.334,103.179 703.5,98.5 Z"/></g>
<g><path style="opacity:1" fill="#585858" d="M 546.5,102.5 C 547.791,104.949 548.791,107.616 549.5,110.5C 550.357,111.425 551.357,112.092 552.5,112.5C 552.5,116.167 552.5,119.833 552.5,123.5C 551.167,123.5 549.833,123.5 548.5,123.5C 547.287,117.833 546.62,110.833 546.5,102.5 Z"/></g>
<g><path style="opacity:1" fill="#5b5b5b" d="M 565.5,117.5 C 565.167,118.5 564.5,119.167 563.5,119.5C 562.5,119.5 561.5,119.5 560.5,119.5C 559.504,119.586 558.671,119.252 558,118.5C 557.062,116.512 556.228,114.512 555.5,112.5C 559.576,108.698 562.409,104.031 564,98.5C 564.5,103.012 564.333,107.512 563.5,112C 563.667,113.5 563.833,115 564,116.5C 564.383,117.056 564.883,117.389 565.5,117.5 Z"/></g>
<g><path style="opacity:1" fill="#ebebeb" d="M 172.5,106.5 C 176.705,105.845 177.872,107.179 176,110.5C 175.617,109.944 175.117,109.611 174.5,109.5C 173.833,108.5 173.167,107.5 172.5,106.5 Z"/></g>
<g><path style="opacity:1" fill="#5b5b5b" d="M 400.5,114.5 C 398.533,114.261 396.699,114.594 395,115.5C 394.902,118.522 394.068,121.189 392.5,123.5C 390.833,123.5 389.167,123.5 387.5,123.5C 386.965,120.762 387.965,118.928 390.5,118C 389.252,114.882 389.586,111.882 391.5,109C 390.207,108.51 388.873,108.343 387.5,108.5C 391.618,107.291 395.951,106.624 400.5,106.5C 400.5,109.167 400.5,111.833 400.5,114.5 Z"/></g>
<g><path style="opacity:1" fill="#7e7e7e" d="M 488.5,124.5 C 482.073,126.238 479.406,123.905 480.5,117.5C 482.792,117.756 484.959,117.423 487,116.5C 486.281,113.481 486.448,110.481 487.5,107.5C 488.5,112.403 488.833,118.07 488.5,124.5 Z"/></g>
<g><path style="opacity:1" fill="#5b5b5b" d="M 407.5,103.5 C 410.477,106.514 411.644,110.181 411,114.5C 410.018,111.615 408.518,109.115 406.5,107C 406.989,105.862 407.322,104.695 407.5,103.5 Z"/></g>
<g><path style="opacity:1" fill="#e3e3e3" d="M 155.5,81.5 C 159.247,81.3924 162.914,81.8924 166.5,83C 162.312,83.1762 158.312,83.6762 154.5,84.5C 129.888,88.114 113.888,101.781 106.5,125.5C 105.25,125.577 104.417,126.244 104,127.5C 103.605,130.207 103.105,132.873 102.5,135.5C 101.127,164.605 113.46,185.438 139.5,198C 144.659,199.998 149.992,201.165 155.5,201.5C 153.393,202.468 151.059,202.802 148.5,202.5C 117.999,194.205 101.665,174.205 99.5,142.5C 101.246,114.844 114.912,95.6777 140.5,85C 145.418,83.4037 150.418,82.237 155.5,81.5 Z"/></g>
<g><path style="opacity:1" fill="#7f7f7f" d="M 387.5,108.5 C 388.873,108.343 390.207,108.51 391.5,109C 389.586,111.882 389.252,114.882 390.5,118C 387.965,118.928 386.965,120.762 387.5,123.5C 389.167,123.5 390.833,123.5 392.5,123.5C 390.735,124.461 388.735,124.795 386.5,124.5C 385.5,124.5 384.5,124.5 383.5,124.5C 381.585,124.784 379.919,124.451 378.5,123.5C 380.167,123.5 381.833,123.5 383.5,123.5C 383.185,120.789 383.852,118.456 385.5,116.5C 386.167,113.833 386.833,111.167 387.5,108.5 Z"/></g>
<g><path style="opacity:1" fill="#adadad" d="M 623.5,106.5 C 624.638,109.913 625.971,113.246 627.5,116.5C 628.209,117.404 629.209,117.737 630.5,117.5C 630.5,122.167 630.5,126.833 630.5,131.5C 625.833,131.5 621.167,131.5 616.5,131.5C 616.5,129.167 616.5,126.833 616.5,124.5C 618.5,124.5 620.5,124.5 622.5,124.5C 622.177,118.31 622.51,112.31 623.5,106.5 Z"/></g>
<g><path style="opacity:1" fill="#7f7f7f" d="M 772.5,109.5 C 774.833,109.5 777.167,109.5 779.5,109.5C 780.461,111.265 780.795,113.265 780.5,115.5C 780.802,118.059 780.468,120.393 779.5,122.5C 779.5,120.5 779.5,118.5 779.5,116.5C 776.287,116.81 773.287,116.477 770.5,115.5C 772.308,114.082 772.975,112.082 772.5,109.5 Z"/></g>
<g><path style="opacity:1" fill="#e9e9e9" d="M 174.5,109.5 C 172.775,114.914 169.441,119.247 164.5,122.5C 163.833,122.167 163.167,121.833 162.5,121.5C 165.5,116.5 169.5,112.5 174.5,109.5 Z"/></g>
<g><path style="opacity:1" fill="#b2b2b2" d="M 552.5,112.5 C 553.5,112.5 554.5,112.5 555.5,112.5C 556.228,114.512 557.062,116.512 558,118.5C 558.671,119.252 559.504,119.586 560.5,119.5C 560.793,123.437 560.46,127.27 559.5,131C 554.845,131.499 550.179,131.666 545.5,131.5C 545.5,129.167 545.5,126.833 545.5,124.5C 546.609,124.443 547.609,124.11 548.5,123.5C 549.833,123.5 551.167,123.5 552.5,123.5C 552.5,119.833 552.5,116.167 552.5,112.5 Z"/></g>
<g><path style="opacity:1" fill="#b4b4b4" d="M 650.5,113.5 C 652.205,115.192 654.205,116.525 656.5,117.5C 656.833,118.167 657.167,118.833 657.5,119.5C 656.517,123.298 656.183,127.298 656.5,131.5C 652.154,131.666 647.821,131.499 643.5,131C 642.086,129.007 641.086,126.84 640.5,124.5C 643.385,124.806 646.052,124.473 648.5,123.5C 649.167,120.167 649.833,116.833 650.5,113.5 Z"/></g>
<g><path style="opacity:1" fill="#adadad" d="M 154.5,116.5 C 151.247,116.438 148.247,115.604 145.5,114C 148.849,113.753 151.849,114.586 154.5,116.5 Z"/></g>
<g><path style="opacity:1" fill="#5b5b5b" d="M 367.5,101.5 C 368.461,103.265 368.795,105.265 368.5,107.5C 369.5,107.5 370.5,107.5 371.5,107.5C 370.841,110.455 370.508,113.455 370.5,116.5C 375.5,116.5 380.5,116.5 385.5,116.5C 383.852,118.456 383.185,120.789 383.5,123.5C 381.833,123.5 380.167,123.5 378.5,123.5C 377.709,121.691 377.709,119.691 378.5,117.5C 377.5,117.5 376.5,117.5 375.5,117.5C 375.739,119.467 375.406,121.301 374.5,123C 368.843,123.499 363.176,123.666 357.5,123.5C 354.5,123.5 351.5,123.5 348.5,123.5C 348.5,121.5 348.5,119.5 348.5,117.5C 345.833,117.5 343.167,117.5 340.5,117.5C 338.833,117.5 337.167,117.5 335.5,117.5C 345.659,116.67 355.992,116.17 366.5,116C 367.469,111.263 367.803,106.43 367.5,101.5 Z"/></g>
<g><path style="opacity:1" fill="#b5b5b5" d="M 400.5,114.5 C 400.414,115.496 400.748,116.329 401.5,117C 403.81,117.497 406.143,117.663 408.5,117.5C 408.5,118.833 408.5,120.167 408.5,121.5C 406.533,121.261 404.699,121.594 403,122.5C 402.668,125.506 401.834,128.34 400.5,131C 395.833,131.667 391.167,131.667 386.5,131C 385.395,128.88 385.395,126.713 386.5,124.5C 388.735,124.795 390.735,124.461 392.5,123.5C 394.068,121.189 394.902,118.522 395,115.5C 396.699,114.594 398.533,114.261 400.5,114.5 Z"/></g>
<g><path style="opacity:1" fill="#b7b7b7" d="M 423.5,113.5 C 425.284,113.893 426.95,114.559 428.5,115.5C 428.5,116.833 428.5,118.167 428.5,119.5C 429.791,119.263 430.791,119.596 431.5,120.5C 432.034,124.102 432.034,127.602 431.5,131C 426.833,131.667 422.167,131.667 417.5,131C 416.577,128.959 416.244,126.792 416.5,124.5C 419.167,124.5 421.833,124.5 424.5,124.5C 423.886,120.865 423.552,117.198 423.5,113.5 Z"/></g>
<g><path style="opacity:1" fill="#595959" d="M 770.5,115.5 C 773.287,116.477 776.287,116.81 779.5,116.5C 779.5,118.5 779.5,120.5 779.5,122.5C 772.82,122.612 766.153,122.946 759.5,123.5C 756.167,123.5 752.833,123.5 749.5,123.5C 749.261,121.533 749.594,119.699 750.5,118C 747.518,117.502 744.518,117.335 741.5,117.5C 740.167,117.5 738.833,117.5 737.5,117.5C 748.338,116.657 759.338,115.99 770.5,115.5 Z"/></g>
<g><path style="opacity:1" fill="#7a7a7a" d="M 546.5,102.5 C 546.62,110.833 547.287,117.833 548.5,123.5C 547.609,124.11 546.609,124.443 545.5,124.5C 539.073,126.238 536.406,123.905 537.5,117.5C 540.064,117.021 542.564,116.355 545,115.5C 545.027,109.082 545.527,104.749 546.5,102.5 Z"/></g>
<g><path style="opacity:1" fill="#828282" d="M 717.5,88.5 C 718.331,99.9928 718.831,111.659 719,123.5C 720.708,109.044 721.208,109.044 720.5,123.5C 721.5,123.5 722.5,123.5 723.5,123.5C 721.735,124.461 719.735,124.795 717.5,124.5C 711.073,126.238 708.406,123.905 709.5,117.5C 711.833,117.5 714.167,117.5 716.5,117.5C 716.638,107.825 716.971,98.1584 717.5,88.5 Z"/></g>
<g><path style="opacity:1" fill="#b3b3b3" d="M 780.5,115.5 C 782.833,115.5 785.167,115.5 787.5,115.5C 787.5,120.167 787.5,124.833 787.5,129.5C 774.826,130.072 762.16,130.738 749.5,131.5C 749.5,129.167 749.5,126.833 749.5,124.5C 753.042,124.813 756.375,124.479 759.5,123.5C 766.153,122.946 772.82,122.612 779.5,122.5C 780.468,120.393 780.802,118.059 780.5,115.5 Z"/></g>
<g><path style="opacity:1" fill="#7f7f7f" d="M 172.5,106.5 C 173.167,107.5 173.833,108.5 174.5,109.5C 169.5,112.5 165.5,116.5 162.5,121.5C 161.5,120.167 160.5,120.167 159.5,121.5C 159.167,121.5 158.833,121.5 158.5,121.5C 163.195,116.474 167.861,111.474 172.5,106.5 Z"/></g>
<g><path style="opacity:1" fill="#818181" d="M 340.5,117.5 C 343.167,117.5 345.833,117.5 348.5,117.5C 348.5,119.5 348.5,121.5 348.5,123.5C 351.5,123.5 354.5,123.5 357.5,123.5C 354.375,124.479 351.042,124.813 347.5,124.5C 345.167,124.5 342.833,124.5 340.5,124.5C 340.5,122.167 340.5,119.833 340.5,117.5 Z"/></g>
<g><path style="opacity:1" fill="#b4b4b4" d="M 378.5,123.5 C 379.919,124.451 381.585,124.784 383.5,124.5C 383.5,126.167 383.5,127.833 383.5,129.5C 372.657,130.037 361.823,130.703 351,131.5C 349.893,131.415 348.893,131.081 348,130.5C 347.505,128.527 347.338,126.527 347.5,124.5C 351.042,124.813 354.375,124.479 357.5,123.5C 363.176,123.666 368.843,123.499 374.5,123C 375.406,121.301 375.739,119.467 375.5,117.5C 376.5,117.5 377.5,117.5 378.5,117.5C 377.709,119.691 377.709,121.691 378.5,123.5 Z"/></g>
<g><path style="opacity:1" fill="#b3b3b3" d="M 565.5,117.5 C 567.5,117.5 569.5,117.5 571.5,117.5C 571.298,119.95 571.631,122.283 572.5,124.5C 567.159,127.9 564.159,126.234 563.5,119.5C 564.5,119.167 565.167,118.5 565.5,117.5 Z"/></g>
<g><path style="opacity:1" fill="#757575" d="M 571.5,117.5 C 573.833,117.5 576.167,117.5 578.5,117.5C 579.468,119.607 579.802,121.941 579.5,124.5C 577.167,124.5 574.833,124.5 572.5,124.5C 571.631,122.283 571.298,119.95 571.5,117.5 Z"/></g>
<g><path style="opacity:1" fill="#b1b1b1" d="M 586.5,117.5 C 587.5,117.5 588.5,117.5 589.5,117.5C 589.338,119.527 589.505,121.527 590,123.5C 591.356,124.38 592.856,124.714 594.5,124.5C 594.756,126.792 594.423,128.959 593.5,131C 588.845,131.499 584.179,131.666 579.5,131.5C 579.5,129.167 579.5,126.833 579.5,124.5C 581.833,124.5 584.167,124.5 586.5,124.5C 586.5,122.167 586.5,119.833 586.5,117.5 Z"/></g>
<g><path style="opacity:1" fill="#676767" d="M 599.5,65.5 C 600.833,65.5 602.167,65.5 603.5,65.5C 602.234,82.8169 601.234,100.15 600.5,117.5C 602.167,117.5 603.833,117.5 605.5,117.5C 606.594,123.905 603.927,126.238 597.5,124.5C 596.5,124.5 595.5,124.5 594.5,124.5C 592.856,124.714 591.356,124.38 590,123.5C 589.505,121.527 589.338,119.527 589.5,117.5C 592.119,117.768 594.619,117.435 597,116.5C 597.667,112.167 597.667,107.833 597,103.5C 596.5,103 596,102.5 595.5,102C 597.689,101.323 598.022,100.156 596.5,98.5C 597.459,87.496 598.459,76.496 599.5,65.5 Z"/></g>
<g><path style="opacity:1" fill="#868686" d="M 632.5,117.5 C 634.5,117.5 636.5,117.5 638.5,117.5C 638.833,119.5 639.167,121.5 639.5,123.5C 642.5,123.5 645.5,123.5 648.5,123.5C 646.052,124.473 643.385,124.806 640.5,124.5C 638.801,124.66 637.134,124.494 635.5,124C 634.594,121.779 633.594,119.612 632.5,117.5 Z"/></g>
<g><path style="opacity:1" fill="#8a8a8a" d="M 741.5,117.5 C 744.518,117.335 747.518,117.502 750.5,118C 749.594,119.699 749.261,121.533 749.5,123.5C 752.833,123.5 756.167,123.5 759.5,123.5C 756.375,124.479 753.042,124.813 749.5,124.5C 743.073,126.238 740.406,123.905 741.5,117.5 Z"/></g>
<g><path style="opacity:1" fill="#9f9f9f" d="M 154.5,116.5 C 155.773,117.077 155.773,117.743 154.5,118.5C 152.55,119.372 150.55,120.039 148.5,120.5C 150.364,118.986 152.364,117.653 154.5,116.5 Z"/></g>
<g><path style="opacity:1" fill="#151515" d="M 162.5,121.5 C 161.74,123.985 160.74,123.985 159.5,121.5C 160.5,120.167 161.5,120.167 162.5,121.5 Z"/></g>
<g><path style="opacity:1" fill="#b7b7b7" d="M 605.5,117.5 C 606.5,117.5 607.5,117.5 608.5,117.5C 608.5,119.833 608.5,122.167 608.5,124.5C 610.167,124.5 611.833,124.5 613.5,124.5C 614.6,130.894 611.933,133.228 605.5,131.5C 599.067,133.228 596.4,130.894 597.5,124.5C 603.927,126.238 606.594,123.905 605.5,117.5 Z"/></g>
<g><path style="opacity:1" fill="#b0b0b0" d="M 148.5,120.5 C 147.402,121.397 147.402,122.23 148.5,123C 152.484,125.487 155.817,124.987 158.5,121.5C 158.833,121.5 159.167,121.5 159.5,121.5C 160.74,123.985 161.74,123.985 162.5,121.5C 163.167,121.833 163.833,122.167 164.5,122.5C 163.942,123.79 162.942,124.623 161.5,125C 157.5,125.667 153.5,125.667 149.5,125C 146.221,123.732 145.888,122.232 148.5,120.5 Z"/></g>
<g><path style="opacity:1" fill="#8f8f8f" d="M 106.5,125.5 C 104.781,133.383 104.114,141.383 104.5,149.5C 103.784,145.411 103.118,140.745 102.5,135.5C 103.105,132.873 103.605,130.207 104,127.5C 104.417,126.244 105.25,125.577 106.5,125.5 Z"/></g>
<g><path style="opacity:1" fill="#eaeaea" d="M 122.5,136.5 C 124.5,136.5 126.5,136.5 128.5,136.5C 128.5,144.833 128.5,153.167 128.5,161.5C 132.042,161.187 135.375,161.521 138.5,162.5C 138.5,164.167 138.5,165.833 138.5,167.5C 133.167,167.5 127.833,167.5 122.5,167.5C 122.5,157.167 122.5,146.833 122.5,136.5 Z"/></g>
<g><path style="opacity:1" fill="#f4f4f4" d="M 148.5,136.5 C 151.119,136.232 153.619,136.565 156,137.5C 157.491,143.998 159.325,149.664 161.5,154.5C 162.65,153.15 163.317,153.316 163.5,155C 162.863,157.245 162.03,159.412 161,161.5C 159.534,156.768 157.867,152.102 156,147.5C 156.828,153.327 158.495,158.993 161,164.5C 164.599,156.442 167.432,148.108 169.5,139.5C 168.065,141.598 166.898,143.931 166,146.5C 165.517,145.552 165.351,144.552 165.5,143.5C 165.258,137.132 168.258,134.799 174.5,136.5C 174.5,146.833 174.5,157.167 174.5,167.5C 172.833,167.5 171.167,167.5 169.5,167.5C 169.828,162.125 169.495,156.792 168.5,151.5C 167.702,151.957 167.369,152.624 167.5,153.5C 166.32,158.555 164.987,163.555 163.5,168.5C 161.833,168.5 160.167,168.5 158.5,168.5C 158.131,163.691 157.131,159.024 155.5,154.5C 155.539,153.244 155.039,152.244 154,151.5C 153.501,156.823 153.334,162.156 153.5,167.5C 151.833,167.5 150.167,167.5 148.5,167.5C 148.5,157.167 148.5,146.833 148.5,136.5 Z"/></g>
<g><path style="opacity:1" fill="#a3a3a3" d="M 122.5,136.5 C 122.5,146.833 122.5,157.167 122.5,167.5C 127.833,167.5 133.167,167.5 138.5,167.5C 138.5,165.833 138.5,164.167 138.5,162.5C 139.461,164.265 139.795,166.265 139.5,168.5C 133.5,168.5 127.5,168.5 121.5,168.5C 121.172,157.654 121.506,146.987 122.5,136.5 Z"/></g>
<g><path style="opacity:1" fill="#aeaeae" d="M 148.5,136.5 C 148.5,146.833 148.5,157.167 148.5,167.5C 150.167,167.5 151.833,167.5 153.5,167.5C 151.735,168.461 149.735,168.795 147.5,168.5C 147.172,157.654 147.506,146.987 148.5,136.5 Z"/></g>
<g><path style="opacity:1" fill="#878787" d="M 174.5,136.5 C 175.494,146.987 175.828,157.654 175.5,168.5C 173.167,168.5 170.833,168.5 168.5,168.5C 168.821,163.305 168.487,158.305 167.5,153.5C 167.369,152.624 167.702,151.957 168.5,151.5C 169.495,156.792 169.828,162.125 169.5,167.5C 171.167,167.5 172.833,167.5 174.5,167.5C 174.5,157.167 174.5,146.833 174.5,136.5 Z"/></g>
<g><path style="opacity:1" fill="#a2a2a2" d="M 124.5,139.5 C 125.493,147.65 125.826,155.983 125.5,164.5C 129.182,164.335 132.848,164.501 136.5,165C 132.514,165.499 128.514,165.666 124.5,165.5C 124.5,156.833 124.5,148.167 124.5,139.5 Z"/></g>
<g><path style="opacity:1" fill="#989898" d="M 169.5,139.5 C 170.209,138.596 171.209,138.263 172.5,138.5C 172.666,147.506 172.5,156.506 172,165.5C 172.142,156.442 171.309,147.775 169.5,139.5 Z"/></g>
<g><path style="opacity:1" fill="#9b9b9b" d="M 184.5,136.5 C 189.975,135.511 195.642,135.178 201.5,135.5C 201.5,137.833 201.5,140.167 201.5,142.5C 197.833,142.5 194.167,142.5 190.5,142.5C 193.625,141.521 196.958,141.187 200.5,141.5C 200.5,139.833 200.5,138.167 200.5,136.5C 195.167,136.5 189.833,136.5 184.5,136.5 Z"/></g>
<g><path style="opacity:1" fill="#afafaf" d="M 150.5,138.5 C 151.675,138.281 152.675,138.614 153.5,139.5C 154.752,141.735 155.252,144.069 155,146.5C 154,144.167 153,141.833 152,139.5C 151.832,148.186 151.332,156.852 150.5,165.5C 149.197,156.441 149.197,147.441 150.5,138.5 Z"/></g>
<g><path style="opacity:1" fill="#ebebeb" d="M 184.5,136.5 C 189.833,136.5 195.167,136.5 200.5,136.5C 200.5,138.167 200.5,139.833 200.5,141.5C 196.958,141.187 193.625,141.521 190.5,142.5C 190.5,144.5 190.5,146.5 190.5,148.5C 193.5,148.5 196.5,148.5 199.5,148.5C 199.756,150.792 199.423,152.959 198.5,155C 195.854,155.497 193.187,155.664 190.5,155.5C 190.5,157.833 190.5,160.167 190.5,162.5C 194.167,162.5 197.833,162.5 201.5,162.5C 201.5,164.167 201.5,165.833 201.5,167.5C 195.833,167.5 190.167,167.5 184.5,167.5C 184.5,157.167 184.5,146.833 184.5,136.5 Z"/></g>
<g><path style="opacity:1" fill="#595959" d="M 211.5,105.5 C 215.913,109.976 219.079,115.309 221,121.5C 225.715,136.702 225.048,151.702 219,166.5C 217.391,169.407 215.558,172.073 213.5,174.5C 216.678,167.804 219.011,160.804 220.5,153.5C 220.48,152.274 220.147,151.274 219.5,150.5C 219.869,147.681 220.202,144.848 220.5,142C 219.6,135.776 218.766,129.61 218,123.5C 220.89,132.575 222.223,141.909 222,151.5C 224.412,134.712 220.912,119.379 211.5,105.5 Z"/></g>
<g><path style="opacity:1" fill="#8e8e8e" d="M 184.5,136.5 C 184.5,146.833 184.5,157.167 184.5,167.5C 190.167,167.5 195.833,167.5 201.5,167.5C 195.69,168.49 189.69,168.823 183.5,168.5C 183.172,157.654 183.506,146.987 184.5,136.5 Z"/></g>
<g><path style="opacity:1" fill="#787878" d="M 186.5,138.5 C 190.514,138.334 194.514,138.501 198.5,139C 194.848,139.499 191.182,139.665 187.5,139.5C 187.5,143.5 187.5,147.5 187.5,151.5C 199.5,151.833 199.5,152.167 187.5,152.5C 187.5,156.5 187.5,160.5 187.5,164.5C 191.182,164.335 194.848,164.501 198.5,165C 194.514,165.499 190.514,165.666 186.5,165.5C 186.5,156.5 186.5,147.5 186.5,138.5 Z"/></g>
<g><path style="opacity:1" fill="#787878" d="M 155.5,154.5 C 154.833,158.833 154.167,163.167 153.5,167.5C 153.334,162.156 153.501,156.823 154,151.5C 155.039,152.244 155.539,153.244 155.5,154.5 Z"/></g>
<g><path style="opacity:1" fill="#a5a5a5" d="M 169.5,139.5 C 167.432,148.108 164.599,156.442 161,164.5C 158.495,158.993 156.828,153.327 156,147.5C 157.867,152.102 159.534,156.768 161,161.5C 162.03,159.412 162.863,157.245 163.5,155C 163.317,153.316 162.65,153.15 161.5,154.5C 162.462,150.605 163.796,146.939 165.5,143.5C 165.351,144.552 165.517,145.552 166,146.5C 166.898,143.931 168.065,141.598 169.5,139.5 Z"/></g>
<g><path style="opacity:1" fill="#777777" d="M 136.5,175.5 C 135.287,174.503 135.454,173.503 137,172.5C 138.422,172.594 139.922,172.928 141.5,173.5C 140.846,175.115 140.346,176.782 140,178.5C 139.51,177.207 139.343,175.873 139.5,174.5C 138.209,174.263 137.209,174.596 136.5,175.5 Z"/></g>
<g><path style="opacity:1" fill="#6f6f6f" d="M 169.5,172.5 C 171.705,172.852 173.538,173.852 175,175.5C 175.943,173.046 177.776,172.046 180.5,172.5C 183.823,172.365 186.656,173.365 189,175.5C 190.171,172.962 191.671,172.462 193.5,174C 192.833,174.333 192.167,174.667 191.5,175C 192.973,175.71 193.64,176.876 193.5,178.5C 183.128,179.487 172.461,179.487 161.5,178.5C 161.5,176.833 161.5,175.167 161.5,173.5C 163.766,173.141 165.599,173.808 167,175.5C 167.698,174.309 168.531,173.309 169.5,172.5 Z"/></g>
<g><path style="opacity:1" fill="#060606" d="M 378.5,182.5 C 378.5,184.5 378.5,186.5 378.5,188.5C 370.474,189.004 362.474,189.837 354.5,191C 353.577,193.041 353.244,195.208 353.5,197.5C 359.167,197.5 364.833,197.5 370.5,197.5C 370.335,200.85 370.502,204.183 371,207.5C 371.497,205.19 371.663,202.857 371.5,200.5C 372.634,202.966 372.801,205.633 372,208.5C 371.329,209.252 370.496,209.586 369.5,209.5C 363.801,209.907 358.134,210.573 352.5,211.5C 352.5,213.833 352.5,216.167 352.5,218.5C 360.167,218.5 367.833,218.5 375.5,218.5C 376.468,220.607 376.802,222.941 376.5,225.5C 376.5,227.5 376.5,229.5 376.5,231.5C 364.67,231.972 353.003,232.639 341.5,233.5C 340.5,233.5 339.5,233.5 338.5,233.5C 338.336,214.787 339.169,196.12 341,177.5C 353.414,176.287 365.914,175.621 378.5,175.5C 378.5,177.833 378.5,180.167 378.5,182.5 Z"/></g>
<g><path style="opacity:1" fill="#0a0a0a" d="M 486.5,181.5 C 485.459,192.496 484.459,203.496 483.5,214.5C 485.022,216.156 484.689,217.323 482.5,218C 483,218.5 483.5,219 484,219.5C 484.667,223.833 484.667,228.167 484,232.5C 481.619,233.435 479.119,233.768 476.5,233.5C 473.941,233.802 471.607,233.468 469.5,232.5C 469.5,224.833 469.5,217.167 469.5,209.5C 470.397,208.402 471.23,208.402 472,209.5C 472.667,206.833 472.667,204.167 472,201.5C 471.667,203.5 471.333,205.5 471,207.5C 470.343,199.477 470.51,191.477 471.5,183.5C 471.5,180.833 471.5,178.167 471.5,175.5C 476.5,175.5 481.5,175.5 486.5,175.5C 486.5,177.5 486.5,179.5 486.5,181.5 Z"/></g>
<g><path style="opacity:1" fill="#050505" d="M 573.5,182.5 C 573.739,184.467 573.406,186.301 572.5,188C 564.52,189.09 556.52,189.924 548.5,190.5C 548.5,192.833 548.5,195.167 548.5,197.5C 554.5,197.5 560.5,197.5 566.5,197.5C 567.692,198.566 567.359,199.399 565.5,200C 567.107,201.049 567.773,202.549 567.5,204.5C 567.714,206.144 567.38,207.644 566.5,209C 560.167,209.916 553.834,210.75 547.5,211.5C 547.5,213.833 547.5,216.167 547.5,218.5C 555.167,218.5 562.833,218.5 570.5,218.5C 571.468,220.607 571.802,222.941 571.5,225.5C 571.5,227.5 571.5,229.5 571.5,231.5C 559.667,231.939 548,232.606 536.5,233.5C 535.5,233.5 534.5,233.5 533.5,233.5C 533.315,218.816 533.649,204.149 534.5,189.5C 534.298,187.05 534.631,184.717 535.5,182.5C 535.261,180.533 535.594,178.699 536.5,177C 548.826,176.267 561.16,175.767 573.5,175.5C 573.5,177.833 573.5,180.167 573.5,182.5 Z"/></g>
<g><path style="opacity:1" fill="#050505" d="M 616.5,182.5 C 616.5,184.5 616.5,186.5 616.5,188.5C 608.474,189.004 600.474,189.837 592.5,191C 591.577,193.041 591.244,195.208 591.5,197.5C 597.167,197.5 602.833,197.5 608.5,197.5C 608.335,200.85 608.502,204.183 609,207.5C 609.497,205.19 609.663,202.857 609.5,200.5C 610.634,202.966 610.801,205.633 610,208.5C 609.329,209.252 608.496,209.586 607.5,209.5C 601.801,209.907 596.134,210.573 590.5,211.5C 590.5,213.833 590.5,216.167 590.5,218.5C 598.167,218.5 605.833,218.5 613.5,218.5C 614.468,220.607 614.802,222.941 614.5,225.5C 614.5,227.5 614.5,229.5 614.5,231.5C 604.997,231.905 595.664,232.572 586.5,233.5C 585.5,233.5 584.5,233.5 583.5,233.5C 582.167,233.5 580.833,233.5 579.5,233.5C 578.5,233.5 577.5,233.5 576.5,233.5C 576.5,230.833 576.5,228.167 576.5,225.5C 576.878,215.835 577.211,206.169 577.5,196.5C 577.833,191.833 578.167,187.167 578.5,182.5C 578.261,180.533 578.594,178.699 579.5,177C 591.826,176.267 604.16,175.767 616.5,175.5C 616.5,177.833 616.5,180.167 616.5,182.5 Z"/></g>
<g><path style="opacity:1" fill="#0c0c0c" d="M 682.5,181.5 C 681.459,192.496 680.459,203.496 679.5,214.5C 681.022,216.156 680.689,217.323 678.5,218C 679,218.5 679.5,219 680,219.5C 680.667,223.833 680.667,228.167 680,232.5C 677.959,233.423 675.792,233.756 673.5,233.5C 671.167,233.5 668.833,233.5 666.5,233.5C 665.532,231.393 665.198,229.059 665.5,226.5C 665.5,221.167 665.5,215.833 665.5,210.5C 666.75,210.577 667.583,211.244 668,212.5C 668.667,208.833 668.667,205.167 668,201.5C 667.667,203.5 667.333,205.5 667,207.5C 666.364,200.144 666.531,192.811 667.5,185.5C 667.5,182.167 667.5,178.833 667.5,175.5C 672.5,175.5 677.5,175.5 682.5,175.5C 682.5,177.5 682.5,179.5 682.5,181.5 Z"/></g>
<g><path style="opacity:1" fill="#7f7f7f" d="M 154.5,172.5 C 156.604,172.201 158.604,172.534 160.5,173.5C 158.009,174.541 158.009,175.374 160.5,176C 157.833,176.667 157.833,177.333 160.5,178C 159.552,178.483 158.552,178.649 157.5,178.5C 157.318,173.206 156.818,173.206 156,178.5C 155.182,173.206 154.682,173.206 154.5,178.5C 152.278,178.822 150.444,178.155 149,176.5C 148.612,177.428 147.945,178.095 147,178.5C 145.584,177.427 144.25,177.427 143,178.5C 142.333,176.833 142.333,175.167 143,173.5C 144.378,175.854 145.878,175.854 147.5,173.5C 148.647,173.818 149.481,174.484 150,175.5C 150.308,174.692 150.808,174.025 151.5,173.5C 152.281,174.729 152.781,176.062 153,177.5C 153.352,175.753 153.852,174.086 154.5,172.5 Z"/></g>
<g><path style="opacity:1" fill="#050505" d="M 403.5,182.5 C 404.834,187.668 406.668,192.668 409,197.5C 409.455,194.146 409.955,190.813 410.5,187.5C 410.207,183.563 410.54,179.73 411.5,176C 415.689,175.188 419.689,175.355 423.5,176.5C 423.5,180.5 423.5,184.5 423.5,188.5C 422.504,202.99 422.171,217.657 422.5,232.5C 417.833,232.5 413.167,232.5 408.5,232.5C 406.971,229.246 405.638,225.913 404.5,222.5C 402.481,217.429 400.481,212.429 398.5,207.5C 398.291,206.078 397.791,204.745 397,203.5C 396.667,213.167 396.333,222.833 396,232.5C 393.959,233.423 391.792,233.756 389.5,233.5C 387.833,233.5 386.167,233.5 384.5,233.5C 383.5,233.5 382.5,233.5 381.5,233.5C 381.5,230.833 381.5,228.167 381.5,225.5C 382.441,220.93 382.774,216.263 382.5,211.5C 382.5,210.167 382.5,208.833 382.5,207.5C 383.482,204.038 383.815,200.371 383.5,196.5C 383.833,191.833 384.167,187.167 384.5,182.5C 383.16,176.507 385.493,174.173 391.5,175.5C 397.403,174.779 401.403,177.112 403.5,182.5 Z"/></g>
<g><path style="opacity:1" fill="#050505" d="M 465.5,183.5 C 465.666,188.179 465.499,192.845 465,197.5C 463.301,198.406 461.467,198.739 459.5,198.5C 456.833,198.5 454.167,198.5 451.5,198.5C 451.5,195.167 451.5,191.833 451.5,188.5C 448.675,188.081 446.509,189.081 445,191.5C 440.75,200.011 439.416,209.011 441,218.5C 444.727,222.493 447.893,221.993 450.5,217C 448.866,216.506 447.199,216.34 445.5,216.5C 445.577,212.123 446.077,207.79 447,203.5C 449.041,202.577 451.208,202.244 453.5,202.5C 456.518,202.335 459.518,202.502 462.5,203C 463.636,204.145 464.636,205.312 465.5,206.5C 465.5,207.167 465.5,207.833 465.5,208.5C 465.301,227.256 455.968,235.256 437.5,232.5C 435.228,231.559 433.228,230.226 431.5,228.5C 428.084,222.715 426.751,216.381 427.5,209.5C 427.113,202.585 428.113,195.918 430.5,189.5C 431.5,189.167 432.167,188.5 432.5,187.5C 439.091,176.247 448.425,173.081 460.5,178C 462.402,179.73 464.069,181.563 465.5,183.5 Z"/></g>
<g><path style="opacity:1" fill="#050505" d="M 509.5,182.5 C 510.834,187.668 512.668,192.668 515,197.5C 515.455,194.146 515.955,190.813 516.5,187.5C 516.207,183.563 516.54,179.73 517.5,176C 521.689,175.188 525.689,175.355 529.5,176.5C 529.5,180.5 529.5,184.5 529.5,188.5C 528.504,202.99 528.171,217.657 528.5,232.5C 523.833,232.5 519.167,232.5 514.5,232.5C 512.971,229.246 511.638,225.913 510.5,222.5C 508.481,217.429 506.481,212.429 504.5,207.5C 504.291,206.078 503.791,204.745 503,203.5C 502.667,213.167 502.333,222.833 502,232.5C 499.959,233.423 497.792,233.756 495.5,233.5C 494.5,233.5 493.5,233.5 492.5,233.5C 490.833,233.5 489.167,233.5 487.5,233.5C 488.234,216.15 489.234,198.817 490.5,181.5C 489.728,176.106 492.062,174.106 497.5,175.5C 503.403,174.779 507.403,177.112 509.5,182.5 Z"/></g>
<g><path style="opacity:1" fill="#060606" d="M 659.5,183.5 C 660.827,189.901 660.494,196.235 658.5,202.5C 656.548,205.118 654.215,207.452 651.5,209.5C 652.275,211.396 653.275,213.063 654.5,214.5C 656.415,218 658.082,221.667 659.5,225.5C 657.217,228.303 654.55,230.636 651.5,232.5C 650.609,233.11 649.609,233.443 648.5,233.5C 646.262,230.028 644.262,226.362 642.5,222.5C 641.194,220.184 639.861,217.85 638.5,215.5C 637.743,214.227 637.077,214.227 636.5,215.5C 635.5,215.5 634.5,215.5 633.5,215.5C 633.822,221.358 633.489,227.025 632.5,232.5C 628.167,232.5 623.833,232.5 619.5,232.5C 619.5,230.167 619.5,227.833 619.5,225.5C 620.441,220.93 620.774,216.263 620.5,211.5C 620.5,211.167 620.5,210.833 620.5,210.5C 621.486,206.03 621.819,201.363 621.5,196.5C 621.833,191.833 622.167,187.167 622.5,182.5C 622.286,180.856 622.62,179.356 623.5,178C 629.818,177.003 636.152,176.17 642.5,175.5C 649.995,174.754 655.662,177.421 659.5,183.5 Z"/></g>
<g><path style="opacity:1" fill="#050505" d="M 705.5,182.5 C 706.834,187.668 708.668,192.668 711,197.5C 711.455,194.146 711.955,190.813 712.5,187.5C 712.207,183.563 712.54,179.73 713.5,176C 717.689,175.188 721.689,175.355 725.5,176.5C 725.5,180.5 725.5,184.5 725.5,188.5C 724.504,202.99 724.171,217.657 724.5,232.5C 719.833,232.5 715.167,232.5 710.5,232.5C 708.971,229.246 707.638,225.913 706.5,222.5C 704.481,217.429 702.481,212.429 700.5,207.5C 700.291,206.078 699.791,204.745 699,203.5C 698.667,213.167 698.333,222.833 698,232.5C 695.959,233.423 693.792,233.756 691.5,233.5C 690.5,233.5 689.5,233.5 688.5,233.5C 686.833,233.5 685.167,233.5 683.5,233.5C 684.234,216.15 685.234,198.817 686.5,181.5C 685.728,176.106 688.062,174.106 693.5,175.5C 699.403,174.779 703.403,177.112 705.5,182.5 Z"/></g>
<g><path style="opacity:1" fill="#050505" d="M 767.5,184.5 C 768.757,188.824 768.59,193.157 767,197.5C 765.301,198.406 763.467,198.739 761.5,198.5C 758.881,198.768 756.381,198.435 754,197.5C 754.513,194.616 754.346,191.782 753.5,189C 750.692,188.08 748.525,188.913 747,191.5C 742.305,200.746 741.472,210.246 744.5,220C 747.893,221.168 750.559,220.334 752.5,217.5C 750.955,216.548 749.288,216.215 747.5,216.5C 747.577,212.123 748.077,207.79 749,203.5C 750.699,202.594 752.533,202.261 754.5,202.5C 757.85,202.335 761.183,202.502 764.5,203C 765.691,203.698 766.691,204.531 767.5,205.5C 767.5,206.167 767.5,206.833 767.5,207.5C 768.281,226.386 759.281,235.053 740.5,233.5C 737.574,231.916 734.908,229.916 732.5,227.5C 728.241,214.689 728.574,202.023 733.5,189.5C 734.401,188.71 735.068,187.71 735.5,186.5C 742.149,176.174 751.149,173.341 762.5,178C 764.765,179.758 766.432,181.925 767.5,184.5 Z"/></g>
<g><path style="opacity:1" fill="#7d7d7d" d="M 136.5,175.5 C 138.048,175.821 138.715,176.821 138.5,178.5C 135.5,177.167 132.5,177.167 129.5,178.5C 129.347,172.676 130.013,172.343 131.5,177.5C 132.243,176.092 133.077,174.759 134,173.5C 134.617,174.449 134.451,175.282 133.5,176C 134.5,176.5 135.5,177 136.5,177.5C 137.463,177.03 137.463,176.363 136.5,175.5 Z"/></g>
<g><path style="opacity:1" fill="#828282" d="M 475.5,179.5 C 475.631,178.624 475.298,177.957 474.5,177.5C 473.818,178.243 473.151,178.909 472.5,179.5C 472.5,178.5 472.5,177.5 472.5,176.5C 474.857,176.337 477.19,176.503 479.5,177C 477.843,177.231 476.509,178.065 475.5,179.5 Z"/></g>
<g><path style="opacity:1" fill="#eeeeee" d="M 475.5,179.5 C 473.371,187.166 472.371,187.166 472.5,179.5C 473.151,178.909 473.818,178.243 474.5,177.5C 475.298,177.957 475.631,178.624 475.5,179.5 Z"/></g>
<g><path style="opacity:1" fill="#828282" d="M 671.5,179.5 C 671.631,178.624 671.298,177.957 670.5,177.5C 669.818,178.243 669.151,178.909 668.5,179.5C 668.5,178.5 668.5,177.5 668.5,176.5C 670.857,176.337 673.19,176.503 675.5,177C 673.843,177.231 672.509,178.065 671.5,179.5 Z"/></g>
<g><path style="opacity:1" fill="#eeeeee" d="M 671.5,179.5 C 669.371,187.166 668.371,187.166 668.5,179.5C 669.151,178.909 669.818,178.243 670.5,177.5C 671.298,177.957 671.631,178.624 671.5,179.5 Z"/></g>
<g><path style="opacity:1" fill="#757575" d="M 403.5,182.5 C 406.7,183.044 409.033,184.71 410.5,187.5C 409.955,190.813 409.455,194.146 409,197.5C 406.668,192.668 404.834,187.668 403.5,182.5 Z"/></g>
<g><path style="opacity:1" fill="#808080" d="M 423.5,176.5 C 424.461,178.265 424.795,180.265 424.5,182.5C 426.833,182.5 429.167,182.5 431.5,182.5C 431.216,184.415 431.549,186.081 432.5,187.5C 432.167,188.5 431.5,189.167 430.5,189.5C 429.167,189.5 427.833,189.5 426.5,189.5C 425.768,197.133 425.268,204.8 425,212.5C 423.534,204.672 423.034,196.672 423.5,188.5C 423.5,184.5 423.5,180.5 423.5,176.5 Z"/></g>
<g><path style="opacity:1" fill="#757575" d="M 509.5,182.5 C 512.7,183.044 515.033,184.71 516.5,187.5C 515.955,190.813 515.455,194.146 515,197.5C 512.668,192.668 510.834,187.668 509.5,182.5 Z"/></g>
<g><path style="opacity:1" fill="#7e7e7e" d="M 529.5,176.5 C 530.461,178.265 530.795,180.265 530.5,182.5C 532.167,182.5 533.833,182.5 535.5,182.5C 534.631,184.717 534.298,187.05 534.5,189.5C 533.069,189.881 532.236,190.881 532,192.5C 531.667,199.167 531.333,205.833 531,212.5C 529.534,204.672 529.034,196.672 529.5,188.5C 529.5,184.5 529.5,180.5 529.5,176.5 Z"/></g>
<g><path style="opacity:1" fill="#757575" d="M 705.5,182.5 C 708.7,183.044 711.033,184.71 712.5,187.5C 711.955,190.813 711.455,194.146 711,197.5C 708.668,192.668 706.834,187.668 705.5,182.5 Z"/></g>
<g><path style="opacity:1" fill="#828282" d="M 725.5,176.5 C 726.461,178.265 726.795,180.265 726.5,182.5C 728.857,182.337 731.19,182.503 733.5,183C 734.085,184.302 734.751,185.469 735.5,186.5C 735.068,187.71 734.401,188.71 733.5,189.5C 731.833,189.5 730.167,189.5 728.5,189.5C 727.768,197.133 727.268,204.8 727,212.5C 725.534,204.672 725.034,196.672 725.5,188.5C 725.5,184.5 725.5,180.5 725.5,176.5 Z"/></g>
<g><path style="opacity:1" fill="#777777" d="M 459.5,198.5 C 459.5,199.5 459.5,200.5 459.5,201.5C 457.265,201.205 455.265,201.539 453.5,202.5C 451.208,202.244 449.041,202.577 447,203.5C 446.077,207.79 445.577,212.123 445.5,216.5C 447.199,216.34 448.866,216.506 450.5,217C 447.893,221.993 444.727,222.493 441,218.5C 439.416,209.011 440.75,200.011 445,191.5C 446.509,189.081 448.675,188.081 451.5,188.5C 451.5,191.833 451.5,195.167 451.5,198.5C 454.167,198.5 456.833,198.5 459.5,198.5 Z"/></g>
<g><path style="opacity:1" fill="#767676" d="M 761.5,198.5 C 761.5,199.5 761.5,200.5 761.5,201.5C 758.941,201.198 756.607,201.532 754.5,202.5C 752.533,202.261 750.699,202.594 749,203.5C 748.077,207.79 747.577,212.123 747.5,216.5C 749.288,216.215 750.955,216.548 752.5,217.5C 750.559,220.334 747.893,221.168 744.5,220C 741.472,210.246 742.305,200.746 747,191.5C 748.525,188.913 750.692,188.08 753.5,189C 754.346,191.782 754.513,194.616 754,197.5C 756.381,198.435 758.881,198.768 761.5,198.5 Z"/></g>
<g><path style="opacity:1" fill="#5f5f5f" d="M 378.5,182.5 C 380.5,182.5 382.5,182.5 384.5,182.5C 384.167,187.167 383.833,191.833 383.5,196.5C 379.486,196.334 375.486,196.501 371.5,197C 372.056,197.383 372.389,197.883 372.5,198.5C 372.167,199.167 371.833,199.833 371.5,200.5C 371.663,202.857 371.497,205.19 371,207.5C 370.502,204.183 370.335,200.85 370.5,197.5C 364.833,197.5 359.167,197.5 353.5,197.5C 353.244,195.208 353.577,193.041 354.5,191C 362.474,189.837 370.474,189.004 378.5,188.5C 378.5,186.5 378.5,184.5 378.5,182.5 Z"/></g>
<g><path style="opacity:1" fill="#606060" d="M 573.5,182.5 C 575.167,182.5 576.833,182.5 578.5,182.5C 578.167,187.167 577.833,191.833 577.5,196.5C 573.629,196.185 569.962,196.518 566.5,197.5C 560.5,197.5 554.5,197.5 548.5,197.5C 548.5,195.167 548.5,192.833 548.5,190.5C 556.52,189.924 564.52,189.09 572.5,188C 573.406,186.301 573.739,184.467 573.5,182.5 Z"/></g>
<g><path style="opacity:1" fill="#5f5f5f" d="M 616.5,182.5 C 618.5,182.5 620.5,182.5 622.5,182.5C 622.167,187.167 621.833,191.833 621.5,196.5C 617.486,196.334 613.486,196.501 609.5,197C 610.056,197.383 610.389,197.883 610.5,198.5C 610.167,199.167 609.833,199.833 609.5,200.5C 609.663,202.857 609.497,205.19 609,207.5C 608.502,204.183 608.335,200.85 608.5,197.5C 602.833,197.5 597.167,197.5 591.5,197.5C 591.244,195.208 591.577,193.041 592.5,191C 600.474,189.837 608.474,189.004 616.5,188.5C 616.5,186.5 616.5,184.5 616.5,182.5 Z"/></g>
<g><path style="opacity:1" fill="#5d5d5d" d="M 465.5,183.5 C 467.229,184.117 468.729,185.117 470,186.5C 470.232,185.263 470.732,184.263 471.5,183.5C 470.51,191.477 470.343,199.477 471,207.5C 471.333,205.5 471.667,203.5 472,201.5C 472.667,204.167 472.667,206.833 472,209.5C 471.23,208.402 470.397,208.402 469.5,209.5C 469.5,208.167 469.5,206.833 469.5,205.5C 467.901,205.232 466.568,205.566 465.5,206.5C 464.636,205.312 463.636,204.145 462.5,203C 459.518,202.502 456.518,202.335 453.5,202.5C 455.265,201.539 457.265,201.205 459.5,201.5C 459.5,200.5 459.5,199.5 459.5,198.5C 461.467,198.739 463.301,198.406 465,197.5C 465.499,192.845 465.666,188.179 465.5,183.5 Z"/></g>
<g><path style="opacity:1" fill="#575757" d="M 529.5,188.5 C 529.034,196.672 529.534,204.672 531,212.5C 531.333,205.833 531.667,199.167 532,192.5C 532.236,190.881 533.069,189.881 534.5,189.5C 533.649,204.149 533.315,218.816 533.5,233.5C 534.5,233.5 535.5,233.5 536.5,233.5C 536.795,235.735 536.461,237.735 535.5,239.5C 532.5,239.5 529.5,239.5 526.5,239.5C 526.167,237.5 525.833,235.5 525.5,233.5C 523.5,233.5 521.5,233.5 519.5,233.5C 518.833,233.5 518.167,233.5 517.5,233.5C 516.209,233.737 515.209,233.404 514.5,232.5C 519.167,232.5 523.833,232.5 528.5,232.5C 528.171,217.657 528.504,202.99 529.5,188.5 Z"/></g>
<g><path style="opacity:1" fill="#595959" d="M 725.5,188.5 C 725.034,196.672 725.534,204.672 727,212.5C 727.268,204.8 727.768,197.133 728.5,189.5C 730.167,189.5 731.833,189.5 733.5,189.5C 728.574,202.023 728.241,214.689 732.5,227.5C 732.817,231.702 732.483,235.702 731.5,239.5C 728.5,239.5 725.5,239.5 722.5,239.5C 722.167,237.5 721.833,235.5 721.5,233.5C 719.5,233.5 717.5,233.5 715.5,233.5C 714.833,233.5 714.167,233.5 713.5,233.5C 712.209,233.737 711.209,233.404 710.5,232.5C 715.167,232.5 719.833,232.5 724.5,232.5C 724.171,217.657 724.504,202.99 725.5,188.5 Z"/></g>
<g><path style="opacity:1" fill="#5f5f5f" d="M 767.5,184.5 C 771.015,185.345 773.681,187.345 775.5,190.5C 775.666,195.179 775.499,199.845 775,204.5C 772.619,205.435 770.119,205.768 767.5,205.5C 766.691,204.531 765.691,203.698 764.5,203C 761.183,202.502 757.85,202.335 754.5,202.5C 756.607,201.532 758.941,201.198 761.5,201.5C 761.5,200.5 761.5,199.5 761.5,198.5C 763.467,198.739 765.301,198.406 767,197.5C 768.59,193.157 768.757,188.824 767.5,184.5 Z"/></g>
<g><path style="opacity:1" fill="#525252" d="M 102.5,135.5 C 103.118,140.745 103.784,145.411 104.5,149.5C 112.321,183.933 133.988,200.933 169.5,200.5C 165.03,201.486 160.363,201.819 155.5,201.5C 149.992,201.165 144.659,199.998 139.5,198C 113.46,185.438 101.127,164.605 102.5,135.5 Z"/></g>
<g><path style="opacity:1" fill="#656565" d="M 637.5,188.5 C 640.5,188.5 643.5,188.5 646.5,188.5C 646.708,196.628 642.708,200.962 634.5,201.5C 634.335,197.818 634.501,194.152 635,190.5C 635.995,189.934 636.828,189.267 637.5,188.5 Z"/></g>
<g><path style="opacity:1" fill="#b3b3b3" d="M 775.5,190.5 C 781.272,193.376 783.939,198.043 783.5,204.5C 783.333,206.833 783.167,209.167 783,211.5C 780.393,212.123 777.893,212.79 775.5,213.5C 773.476,210.657 770.809,208.657 767.5,207.5C 767.5,206.833 767.5,206.167 767.5,205.5C 770.119,205.768 772.619,205.435 775,204.5C 775.499,199.845 775.666,195.179 775.5,190.5 Z"/></g>
<g><path style="opacity:1" fill="#c7c7c7" d="M 219.5,150.5 C 220.147,151.274 220.48,152.274 220.5,153.5C 219.011,160.804 216.678,167.804 213.5,174.5C 197.597,197.287 175.93,206.62 148.5,202.5C 151.059,202.802 153.393,202.468 155.5,201.5C 160.363,201.819 165.03,201.486 169.5,200.5C 197.82,195.513 214.487,178.846 219.5,150.5 Z"/></g>
<g><path style="opacity:1" fill="#aaaaaa" d="M 383.5,196.5 C 383.815,200.371 383.482,204.038 382.5,207.5C 382.5,206.167 382.5,204.833 382.5,203.5C 380.058,203.119 379.391,203.786 380.5,205.5C 380.043,206.298 379.376,206.631 378.5,206.5C 378.5,205.5 378.5,204.5 378.5,203.5C 376.833,203.5 375.167,203.5 373.5,203.5C 373.784,201.585 373.451,199.919 372.5,198.5C 372.389,197.883 372.056,197.383 371.5,197C 375.486,196.501 379.486,196.334 383.5,196.5 Z"/></g>
<g><path style="opacity:1" fill="#aaaaaa" d="M 566.5,197.5 C 569.962,196.518 573.629,196.185 577.5,196.5C 577.211,206.169 576.878,215.835 576.5,225.5C 574.833,225.5 573.167,225.5 571.5,225.5C 571.802,222.941 571.468,220.607 570.5,218.5C 569.737,217.732 568.737,217.232 567.5,217C 569.833,216.667 572.167,216.333 574.5,216C 575.38,214.644 575.714,213.144 575.5,211.5C 574.5,211.5 573.5,211.5 572.5,211.5C 572.5,209.167 572.5,206.833 572.5,204.5C 570.833,204.5 569.167,204.5 567.5,204.5C 567.773,202.549 567.107,201.049 565.5,200C 567.359,199.399 567.692,198.566 566.5,197.5 Z"/></g>
<g><path style="opacity:1" fill="#aeaeae" d="M 621.5,196.5 C 621.819,201.363 621.486,206.03 620.5,210.5C 620.5,208.167 620.5,205.833 620.5,203.5C 618.058,203.119 617.391,203.786 618.5,205.5C 618.043,206.298 617.376,206.631 616.5,206.5C 616.5,205.5 616.5,204.5 616.5,203.5C 614.833,203.5 613.167,203.5 611.5,203.5C 611.784,201.585 611.451,199.919 610.5,198.5C 610.389,197.883 610.056,197.383 609.5,197C 613.486,196.501 617.486,196.334 621.5,196.5 Z"/></g>
<g><path style="opacity:1" fill="#808080" d="M 658.5,202.5 C 662.225,202.78 663.392,204.78 662,208.5C 660.52,211.817 658.02,213.817 654.5,214.5C 653.275,213.063 652.275,211.396 651.5,209.5C 654.215,207.452 656.548,205.118 658.5,202.5 Z"/></g>
<g><path style="opacity:1" fill="#585858" d="M 423.5,188.5 C 423.034,196.672 423.534,204.672 425,212.5C 425.268,204.8 425.768,197.133 426.5,189.5C 427.833,189.5 429.167,189.5 430.5,189.5C 428.113,195.918 427.113,202.585 427.5,209.5C 426.751,216.381 428.084,222.715 431.5,228.5C 430.833,232.167 430.167,235.833 429.5,239.5C 426.5,239.5 423.5,239.5 420.5,239.5C 420.167,237.5 419.833,235.5 419.5,233.5C 417.5,233.5 415.5,233.5 413.5,233.5C 412.833,233.5 412.167,233.5 411.5,233.5C 410.209,233.737 409.209,233.404 408.5,232.5C 413.167,232.5 417.833,232.5 422.5,232.5C 422.171,217.657 422.504,202.99 423.5,188.5 Z"/></g>
<g><path style="opacity:1" fill="#818181" d="M 372.5,198.5 C 373.451,199.919 373.784,201.585 373.5,203.5C 375.167,203.5 376.833,203.5 378.5,203.5C 378.5,204.5 378.5,205.5 378.5,206.5C 379.968,207.779 380.635,209.446 380.5,211.5C 376.351,212.08 372.684,211.414 369.5,209.5C 370.496,209.586 371.329,209.252 372,208.5C 372.801,205.633 372.634,202.966 371.5,200.5C 371.833,199.833 372.167,199.167 372.5,198.5 Z"/></g>
<g><path style="opacity:1" fill="#818181" d="M 610.5,198.5 C 611.451,199.919 611.784,201.585 611.5,203.5C 613.167,203.5 614.833,203.5 616.5,203.5C 616.5,204.5 616.5,205.5 616.5,206.5C 617.968,207.779 618.635,209.446 618.5,211.5C 614.351,212.08 610.684,211.414 607.5,209.5C 608.496,209.586 609.329,209.252 610,208.5C 610.801,205.633 610.634,202.966 609.5,200.5C 609.833,199.833 610.167,199.167 610.5,198.5 Z"/></g>
<g><path style="opacity:1" fill="#f3f3f3" d="M 382.5,207.5 C 382.5,208.833 382.5,210.167 382.5,211.5C 381.833,211.5 381.167,211.5 380.5,211.5C 380.635,209.446 379.968,207.779 378.5,206.5C 379.376,206.631 380.043,206.298 380.5,205.5C 379.391,203.786 380.058,203.119 382.5,203.5C 382.5,204.833 382.5,206.167 382.5,207.5 Z"/></g>
<g><path style="opacity:1" fill="#bebebe" d="M 469.5,209.5 C 468.041,209.567 466.708,209.234 465.5,208.5C 465.5,207.833 465.5,207.167 465.5,206.5C 466.568,205.566 467.901,205.232 469.5,205.5C 469.5,206.833 469.5,208.167 469.5,209.5 Z"/></g>
<g><path style="opacity:1" fill="#f3f3f3" d="M 620.5,210.5 C 620.5,210.833 620.5,211.167 620.5,211.5C 619.833,211.5 619.167,211.5 618.5,211.5C 618.635,209.446 617.968,207.779 616.5,206.5C 617.376,206.631 618.043,206.298 618.5,205.5C 617.391,203.786 618.058,203.119 620.5,203.5C 620.5,205.833 620.5,208.167 620.5,210.5 Z"/></g>
<g><path style="opacity:1" fill="#616161" d="M 567.5,204.5 C 569.167,204.5 570.833,204.5 572.5,204.5C 572.5,206.833 572.5,209.167 572.5,211.5C 573.5,211.5 574.5,211.5 575.5,211.5C 575.714,213.144 575.38,214.644 574.5,216C 572.167,216.333 569.833,216.667 567.5,217C 568.737,217.232 569.737,217.732 570.5,218.5C 562.833,218.5 555.167,218.5 547.5,218.5C 547.5,216.167 547.5,213.833 547.5,211.5C 553.834,210.75 560.167,209.916 566.5,209C 567.38,207.644 567.714,206.144 567.5,204.5 Z"/></g>
<g><path style="opacity:1" fill="#5c5c5c" d="M 369.5,209.5 C 372.684,211.414 376.351,212.08 380.5,211.5C 380.714,213.144 380.38,214.644 379.5,216C 377.167,216.333 374.833,216.667 372.5,217C 373.737,217.232 374.737,217.732 375.5,218.5C 367.833,218.5 360.167,218.5 352.5,218.5C 352.5,216.167 352.5,213.833 352.5,211.5C 358.134,210.573 363.801,209.907 369.5,209.5 Z"/></g>
<g><path style="opacity:1" fill="#5c5c5c" d="M 607.5,209.5 C 610.684,211.414 614.351,212.08 618.5,211.5C 618.714,213.144 618.38,214.644 617.5,216C 615.167,216.333 612.833,216.667 610.5,217C 611.737,217.232 612.737,217.732 613.5,218.5C 605.833,218.5 598.167,218.5 590.5,218.5C 590.5,216.167 590.5,213.833 590.5,211.5C 596.134,210.573 601.801,209.907 607.5,209.5 Z"/></g>
<g><path style="opacity:1" fill="#afafaf" d="M 665.5,210.5 C 665.5,215.833 665.5,221.167 665.5,226.5C 663.144,223.635 661.144,220.468 659.5,217C 661.317,214.608 663.317,212.441 665.5,210.5 Z"/></g>
<g><path style="opacity:1" fill="#5f5f5f" d="M 659.5,183.5 C 662.056,184.543 664.223,186.21 666,188.5C 666.232,187.263 666.732,186.263 667.5,185.5C 666.531,192.811 666.364,200.144 667,207.5C 667.333,205.5 667.667,203.5 668,201.5C 668.667,205.167 668.667,208.833 668,212.5C 667.583,211.244 666.75,210.577 665.5,210.5C 663.317,212.441 661.317,214.608 659.5,217C 661.144,220.468 663.144,223.635 665.5,226.5C 665.198,229.059 665.532,231.393 666.5,233.5C 664.116,235.885 661.45,237.885 658.5,239.5C 657.85,239.804 657.183,240.137 656.5,240.5C 654.808,237.769 653.142,235.102 651.5,232.5C 654.55,230.636 657.217,228.303 659.5,225.5C 658.082,221.667 656.415,218 654.5,214.5C 658.02,213.817 660.52,211.817 662,208.5C 663.392,204.78 662.225,202.78 658.5,202.5C 660.494,196.235 660.827,189.901 659.5,183.5 Z"/></g>
<g><path style="opacity:1" fill="#a1a1a1" d="M 380.5,211.5 C 381.167,211.5 381.833,211.5 382.5,211.5C 382.774,216.263 382.441,220.93 381.5,225.5C 379.833,225.5 378.167,225.5 376.5,225.5C 376.802,222.941 376.468,220.607 375.5,218.5C 374.737,217.732 373.737,217.232 372.5,217C 374.833,216.667 377.167,216.333 379.5,216C 380.38,214.644 380.714,213.144 380.5,211.5 Z"/></g>
<g><path style="opacity:1" fill="#5b5b5b" d="M 398.5,207.5 C 400.481,212.429 402.481,217.429 404.5,222.5C 403.51,228.31 403.177,234.31 403.5,240.5C 401.5,240.5 399.5,240.5 397.5,240.5C 397.056,232.847 397.723,225.347 399.5,218C 399.06,214.757 398.727,211.257 398.5,207.5 Z"/></g>
<g><path style="opacity:1" fill="#5b5b5b" d="M 504.5,207.5 C 506.481,212.429 508.481,217.429 510.5,222.5C 509.51,228.31 509.177,234.31 509.5,240.5C 507.5,240.5 505.5,240.5 503.5,240.5C 503.056,232.847 503.723,225.347 505.5,218C 505.06,214.757 504.727,211.257 504.5,207.5 Z"/></g>
<g><path style="opacity:1" fill="#a5a5a5" d="M 618.5,211.5 C 619.167,211.5 619.833,211.5 620.5,211.5C 620.774,216.263 620.441,220.93 619.5,225.5C 617.833,225.5 616.167,225.5 614.5,225.5C 614.802,222.941 614.468,220.607 613.5,218.5C 612.737,217.732 611.737,217.232 610.5,217C 612.833,216.667 615.167,216.333 617.5,216C 618.38,214.644 618.714,213.144 618.5,211.5 Z"/></g>
<g><path style="opacity:1" fill="#5b5b5b" d="M 700.5,207.5 C 702.481,212.429 704.481,217.429 706.5,222.5C 705.51,228.31 705.177,234.31 705.5,240.5C 703.5,240.5 701.5,240.5 699.5,240.5C 699.056,232.847 699.723,225.347 701.5,218C 701.06,214.757 700.727,211.257 700.5,207.5 Z"/></g>
<g><path style="opacity:1" fill="#7e7e7e" d="M 636.5,215.5 C 636.269,223.505 635.935,231.505 635.5,239.5C 633.833,239.5 632.167,239.5 630.5,239.5C 630.185,236.789 630.852,234.456 632.5,232.5C 633.489,227.025 633.822,221.358 633.5,215.5C 634.5,215.5 635.5,215.5 636.5,215.5 Z"/></g>
<g><path style="opacity:1" fill="#595959" d="M 642.5,222.5 C 640.55,227.735 639.883,233.402 640.5,239.5C 638.833,239.5 637.167,239.5 635.5,239.5C 635.935,231.505 636.269,223.505 636.5,215.5C 637.077,214.227 637.743,214.227 638.5,215.5C 639.861,217.85 641.194,220.184 642.5,222.5 Z"/></g>
<g><path style="opacity:1" fill="#616161" d="M 465.5,208.5 C 466.708,209.234 468.041,209.567 469.5,209.5C 469.5,217.167 469.5,224.833 469.5,232.5C 462.948,239.683 454.948,242.016 445.5,239.5C 442.561,238.544 440.228,236.877 438.5,234.5C 438.167,233.833 437.833,233.167 437.5,232.5C 455.968,235.256 465.301,227.256 465.5,208.5 Z"/></g>
<g><path style="opacity:1" fill="#626262" d="M 767.5,207.5 C 770.809,208.657 773.476,210.657 775.5,213.5C 775.5,214.167 775.5,214.833 775.5,215.5C 775.306,234.254 765.973,242.254 747.5,239.5C 744.553,238.219 742.219,236.219 740.5,233.5C 759.281,235.053 768.281,226.386 767.5,207.5 Z"/></g>
<g><path style="opacity:1" fill="#b3b3b3" d="M 775.5,215.5 C 781.442,216.116 784.109,219.45 783.5,225.5C 781.708,241.797 772.708,248.964 756.5,247C 752.276,245.898 749.276,243.398 747.5,239.5C 765.973,242.254 775.306,234.254 775.5,215.5 Z"/></g>
<g><path style="opacity:1" fill="#777777" d="M 398.5,207.5 C 398.727,211.257 399.06,214.757 399.5,218C 397.723,225.347 397.056,232.847 397.5,240.5C 395.833,240.5 394.167,240.5 392.5,240.5C 391.5,240.5 390.5,240.5 389.5,240.5C 389.5,238.167 389.5,235.833 389.5,233.5C 391.792,233.756 393.959,233.423 396,232.5C 396.333,222.833 396.667,213.167 397,203.5C 397.791,204.745 398.291,206.078 398.5,207.5 Z"/></g>
<g><path style="opacity:1" fill="#767676" d="M 504.5,207.5 C 504.727,211.257 505.06,214.757 505.5,218C 503.723,225.347 503.056,232.847 503.5,240.5C 502.5,240.5 501.5,240.5 500.5,240.5C 498.833,240.5 497.167,240.5 495.5,240.5C 495.5,238.167 495.5,235.833 495.5,233.5C 497.792,233.756 499.959,233.423 502,232.5C 502.333,222.833 502.667,213.167 503,203.5C 503.791,204.745 504.291,206.078 504.5,207.5 Z"/></g>
<g><path style="opacity:1" fill="#767676" d="M 700.5,207.5 C 700.727,211.257 701.06,214.757 701.5,218C 699.723,225.347 699.056,232.847 699.5,240.5C 698.5,240.5 697.5,240.5 696.5,240.5C 694.833,240.5 693.167,240.5 691.5,240.5C 691.5,238.167 691.5,235.833 691.5,233.5C 693.792,233.756 695.959,233.423 698,232.5C 698.333,222.833 698.667,213.167 699,203.5C 699.791,204.745 700.291,206.078 700.5,207.5 Z"/></g>
<g><path style="opacity:1" fill="#adadad" d="M 404.5,222.5 C 405.638,225.913 406.971,229.246 408.5,232.5C 409.209,233.404 410.209,233.737 411.5,233.5C 411.5,238.167 411.5,242.833 411.5,247.5C 406.833,247.5 402.167,247.5 397.5,247.5C 397.5,245.167 397.5,242.833 397.5,240.5C 399.5,240.5 401.5,240.5 403.5,240.5C 403.177,234.31 403.51,228.31 404.5,222.5 Z"/></g>
<g><path style="opacity:1" fill="#adadad" d="M 510.5,222.5 C 511.638,225.913 512.971,229.246 514.5,232.5C 515.209,233.404 516.209,233.737 517.5,233.5C 517.5,238.167 517.5,242.833 517.5,247.5C 512.833,247.5 508.167,247.5 503.5,247.5C 503.5,245.167 503.5,242.833 503.5,240.5C 505.5,240.5 507.5,240.5 509.5,240.5C 509.177,234.31 509.51,228.31 510.5,222.5 Z"/></g>
<g><path style="opacity:1" fill="#adadad" d="M 706.5,222.5 C 707.638,225.913 708.971,229.246 710.5,232.5C 711.209,233.404 712.209,233.737 713.5,233.5C 713.5,238.167 713.5,242.833 713.5,247.5C 708.833,247.5 704.167,247.5 699.5,247.5C 699.5,245.167 699.5,242.833 699.5,240.5C 701.5,240.5 703.5,240.5 705.5,240.5C 705.177,234.31 705.51,228.31 706.5,222.5 Z"/></g>
<g><path style="opacity:1" fill="#b3b3b3" d="M 431.5,228.5 C 433.228,230.226 435.228,231.559 437.5,232.5C 437.833,233.167 438.167,233.833 438.5,234.5C 437.515,238.634 437.182,242.968 437.5,247.5C 433.154,247.666 428.821,247.499 424.5,247C 423.086,245.007 422.086,242.84 421.5,240.5C 424.385,240.806 427.052,240.473 429.5,239.5C 430.167,235.833 430.833,232.167 431.5,228.5 Z"/></g>
<g><path style="opacity:1" fill="#b3b3b3" d="M 732.5,227.5 C 734.908,229.916 737.574,231.916 740.5,233.5C 739.514,237.97 739.181,242.637 739.5,247.5C 735.154,247.666 730.821,247.499 726.5,247C 725.086,245.007 724.086,242.84 723.5,240.5C 726.385,240.806 729.052,240.473 731.5,239.5C 732.483,235.702 732.817,231.702 732.5,227.5 Z"/></g>
<g><path style="opacity:1" fill="#5d5d5d" d="M 376.5,225.5 C 378.167,225.5 379.833,225.5 381.5,225.5C 381.5,228.167 381.5,230.833 381.5,233.5C 382.5,233.5 383.5,233.5 384.5,233.5C 384.5,235.167 384.5,236.833 384.5,238.5C 377.504,238.894 370.504,239.227 363.5,239.5C 360.167,239.5 356.833,239.5 353.5,239.5C 353.261,237.533 353.594,235.699 354.5,234C 351.518,233.502 348.518,233.335 345.5,233.5C 344.167,233.5 342.833,233.5 341.5,233.5C 353.003,232.639 364.67,231.972 376.5,231.5C 376.5,229.5 376.5,227.5 376.5,225.5 Z"/></g>
<g><path style="opacity:1" fill="#5d5d5d" d="M 571.5,225.5 C 573.167,225.5 574.833,225.5 576.5,225.5C 576.5,228.167 576.5,230.833 576.5,233.5C 577.5,233.5 578.5,233.5 579.5,233.5C 579.5,235.167 579.5,236.833 579.5,238.5C 569.174,239.018 558.841,239.351 548.5,239.5C 548.261,237.533 548.594,235.699 549.5,234C 547.5,233.333 545.5,233.333 543.5,234C 544.423,236.041 544.756,238.208 544.5,240.5C 544.167,240.5 543.833,240.5 543.5,240.5C 542.504,240.586 541.671,240.252 541,239.5C 540.505,237.527 540.338,235.527 540.5,233.5C 539.167,233.5 537.833,233.5 536.5,233.5C 548,232.606 559.667,231.939 571.5,231.5C 571.5,229.5 571.5,227.5 571.5,225.5 Z"/></g>
<g><path style="opacity:1" fill="#5e5e5e" d="M 614.5,225.5 C 616.167,225.5 617.833,225.5 619.5,225.5C 619.5,227.833 619.5,230.167 619.5,232.5C 623.833,232.5 628.167,232.5 632.5,232.5C 630.852,234.456 630.185,236.789 630.5,239.5C 629.5,239.5 628.5,239.5 627.5,239.5C 627.5,237.5 627.5,235.5 627.5,233.5C 625.833,233.5 624.167,233.5 622.5,233.5C 622.5,235.167 622.5,236.833 622.5,238.5C 615.504,238.894 608.504,239.227 601.5,239.5C 598.167,239.5 594.833,239.5 591.5,239.5C 591.261,237.533 591.594,235.699 592.5,234C 590.527,233.505 588.527,233.338 586.5,233.5C 595.664,232.572 604.997,231.905 614.5,231.5C 614.5,229.5 614.5,227.5 614.5,225.5 Z"/></g>
<g><path style="opacity:1" fill="#8c8c8c" d="M 345.5,233.5 C 348.518,233.335 351.518,233.502 354.5,234C 353.594,235.699 353.261,237.533 353.5,239.5C 356.833,239.5 360.167,239.5 363.5,239.5C 360.375,240.479 357.042,240.813 353.5,240.5C 347.073,242.238 344.406,239.905 345.5,233.5 Z"/></g>
<g><path style="opacity:1" fill="#b3b3b3" d="M 384.5,233.5 C 386.167,233.5 387.833,233.5 389.5,233.5C 389.5,235.833 389.5,238.167 389.5,240.5C 390.5,240.5 391.5,240.5 392.5,240.5C 392.5,242.167 392.5,243.833 392.5,245.5C 380.808,245.761 369.142,246.427 357.5,247.5C 356.228,247.43 355.062,247.097 354,246.5C 353.505,244.527 353.338,242.527 353.5,240.5C 357.042,240.813 360.375,240.479 363.5,239.5C 370.504,239.227 377.504,238.894 384.5,238.5C 384.5,236.833 384.5,235.167 384.5,233.5 Z"/></g>
<g><path style="opacity:1" fill="#868686" d="M 413.5,233.5 C 415.5,233.5 417.5,233.5 419.5,233.5C 419.833,235.5 420.167,237.5 420.5,239.5C 423.5,239.5 426.5,239.5 429.5,239.5C 427.052,240.473 424.385,240.806 421.5,240.5C 419.801,240.66 418.134,240.494 416.5,240C 415.594,237.779 414.594,235.612 413.5,233.5 Z"/></g>
<g><path style="opacity:1" fill="#b2b2b2" d="M 469.5,232.5 C 471.607,233.468 473.941,233.802 476.5,233.5C 476.325,235.621 476.659,237.621 477.5,239.5C 469.468,247.783 460.135,249.617 449.5,245C 447.561,243.568 446.228,241.735 445.5,239.5C 454.948,242.016 462.948,239.683 469.5,232.5 Z"/></g>
<g><path style="opacity:1" fill="#696969" d="M 486.5,181.5 C 487.833,181.5 489.167,181.5 490.5,181.5C 489.234,198.817 488.234,216.15 487.5,233.5C 489.167,233.5 490.833,233.5 492.5,233.5C 493.594,239.905 490.927,242.238 484.5,240.5C 481.941,240.802 479.607,240.468 477.5,239.5C 476.659,237.621 476.325,235.621 476.5,233.5C 479.119,233.768 481.619,233.435 484,232.5C 484.667,228.167 484.667,223.833 484,219.5C 483.5,219 483,218.5 482.5,218C 484.689,217.323 485.022,216.156 483.5,214.5C 484.459,203.496 485.459,192.496 486.5,181.5 Z"/></g>
<g><path style="opacity:1" fill="#868686" d="M 519.5,233.5 C 521.5,233.5 523.5,233.5 525.5,233.5C 525.833,235.5 526.167,237.5 526.5,239.5C 529.5,239.5 532.5,239.5 535.5,239.5C 533.052,240.473 530.385,240.806 527.5,240.5C 525.801,240.66 524.134,240.494 522.5,240C 521.594,237.779 520.594,235.612 519.5,233.5 Z"/></g>
<g><path style="opacity:1" fill="#b5b5b5" d="M 536.5,233.5 C 537.833,233.5 539.167,233.5 540.5,233.5C 540.338,235.527 540.505,237.527 541,239.5C 541.671,240.252 542.504,240.586 543.5,240.5C 543.5,242.833 543.5,245.167 543.5,247.5C 539.154,247.666 534.821,247.499 530.5,247C 529.086,245.007 528.086,242.84 527.5,240.5C 530.385,240.806 533.052,240.473 535.5,239.5C 536.461,237.735 536.795,235.735 536.5,233.5 Z"/></g>
<g><path style="opacity:1" fill="#aeaeae" d="M 579.5,233.5 C 580.833,233.5 582.167,233.5 583.5,233.5C 583.338,235.527 583.505,237.527 584,239.5C 584.671,240.252 585.504,240.586 586.5,240.5C 586.5,242.167 586.5,243.833 586.5,245.5C 573.826,246.072 561.16,246.738 548.5,247.5C 548.5,245.167 548.5,242.833 548.5,240.5C 547.167,240.5 545.833,240.5 544.5,240.5C 544.756,238.208 544.423,236.041 543.5,234C 545.5,233.333 547.5,233.333 549.5,234C 548.594,235.699 548.261,237.533 548.5,239.5C 558.841,239.351 569.174,239.018 579.5,238.5C 579.5,236.833 579.5,235.167 579.5,233.5 Z"/></g>
<g><path style="opacity:1" fill="#b1b1b1" d="M 642.5,222.5 C 644.262,226.362 646.262,230.028 648.5,233.5C 648.5,237.833 648.5,242.167 648.5,246.5C 644.167,246.5 639.833,246.5 635.5,246.5C 635.5,244.5 635.5,242.5 635.5,240.5C 633.833,240.5 632.167,240.5 630.5,240.5C 630.5,242.167 630.5,243.833 630.5,245.5C 618.808,245.761 607.142,246.427 595.5,247.5C 594.228,247.43 593.062,247.097 592,246.5C 591.505,244.527 591.338,242.527 591.5,240.5C 595.042,240.813 598.375,240.479 601.5,239.5C 608.504,239.227 615.504,238.894 622.5,238.5C 622.5,236.833 622.5,235.167 622.5,233.5C 624.167,233.5 625.833,233.5 627.5,233.5C 627.5,235.5 627.5,237.5 627.5,239.5C 628.5,239.5 629.5,239.5 630.5,239.5C 632.167,239.5 633.833,239.5 635.5,239.5C 637.167,239.5 638.833,239.5 640.5,239.5C 639.883,233.402 640.55,227.735 642.5,222.5 Z"/></g>
<g><path style="opacity:1" fill="#b2b2b2" d="M 666.5,233.5 C 668.833,233.5 671.167,233.5 673.5,233.5C 671.914,236.216 672.247,238.55 674.5,240.5C 671.583,243.303 668.25,245.637 664.5,247.5C 662.967,244.412 660.967,241.745 658.5,239.5C 661.45,237.885 664.116,235.885 666.5,233.5 Z"/></g>
<g><path style="opacity:1" fill="#696969" d="M 682.5,181.5 C 683.833,181.5 685.167,181.5 686.5,181.5C 685.234,198.817 684.234,216.15 683.5,233.5C 685.167,233.5 686.833,233.5 688.5,233.5C 689.594,239.905 686.927,242.238 680.5,240.5C 678.5,240.5 676.5,240.5 674.5,240.5C 672.247,238.55 671.914,236.216 673.5,233.5C 675.792,233.756 677.959,233.423 680,232.5C 680.667,228.167 680.667,223.833 680,219.5C 679.5,219 679,218.5 678.5,218C 680.689,217.323 681.022,216.156 679.5,214.5C 680.459,203.496 681.459,192.496 682.5,181.5 Z"/></g>
<g><path style="opacity:1" fill="#868686" d="M 715.5,233.5 C 717.5,233.5 719.5,233.5 721.5,233.5C 721.833,235.5 722.167,237.5 722.5,239.5C 725.5,239.5 728.5,239.5 731.5,239.5C 729.052,240.473 726.385,240.806 723.5,240.5C 721.801,240.66 720.134,240.494 718.5,240C 717.594,237.779 716.594,235.612 715.5,233.5 Z"/></g>
<g><path style="opacity:1" fill="#7d7d7d" d="M 583.5,233.5 C 584.5,233.5 585.5,233.5 586.5,233.5C 588.527,233.338 590.527,233.505 592.5,234C 591.594,235.699 591.261,237.533 591.5,239.5C 594.833,239.5 598.167,239.5 601.5,239.5C 598.375,240.479 595.042,240.813 591.5,240.5C 589.833,240.5 588.167,240.5 586.5,240.5C 585.504,240.586 584.671,240.252 584,239.5C 583.505,237.527 583.338,235.527 583.5,233.5 Z"/></g>
<g><path style="opacity:1" fill="#b7b7b7" d="M 492.5,233.5 C 493.5,233.5 494.5,233.5 495.5,233.5C 495.5,235.833 495.5,238.167 495.5,240.5C 497.167,240.5 498.833,240.5 500.5,240.5C 501.6,246.894 498.933,249.228 492.5,247.5C 486.067,249.228 483.4,246.894 484.5,240.5C 490.927,242.238 493.594,239.905 492.5,233.5 Z"/></g>
<g><path style="opacity:1" fill="#b7b7b7" d="M 688.5,233.5 C 689.5,233.5 690.5,233.5 691.5,233.5C 691.5,235.833 691.5,238.167 691.5,240.5C 693.167,240.5 694.833,240.5 696.5,240.5C 697.6,246.894 694.933,249.228 688.5,247.5C 682.067,249.228 679.4,246.894 680.5,240.5C 686.927,242.238 689.594,239.905 688.5,233.5 Z"/></g>
</svg>
